  0
SECTION
  2
HEADER
  9
$ANGBASE
  50
0.0
  9
$ANGDIR
  70
1
  9
$MEASUREMENT
  70
1
  0
ENDSEC
  0
SECTION
  2
TABLES
  0
TABLE
  2
LTYPE
  70
4
  0
LTYPE
  5
40F
  2
CONTINUOUS
  70
0
  3
Solid line
  72
65
  73
0
  40
0.0
  0
LTYPE
  5
410
  2
DASHDOT
 70
0
  3
Dash Dot ____ _ ____ _
 72
65
 73
4
 40
2.0
 49
1.25
 49
-0.25
 49
0.25
 49
-0.25
  0
LTYPE
  5
411
  2
DASHED
 70
0
  3
Dashed __ __ __ __ __
 72
65
 73
2
 40
0.75
 49
0.5
 49
-0.25
  0
LTYPE
  5
43B
  2
DOTTED
 70
0
  3
Dotted .  .  .  .
 72
65
 73
2
 40
0.2
 49
0.0
 49
-0.2
  0
ENDTAB
  0
TABLE
  2
STYLE
  70
4
  0
STYLE
  2
KICAD
  70
0
  40
0
  41
1
  42
1
  50
0
  71
0
  3
isocp.shx
  0
STYLE
  2
KICADB
  70
0
  40
0
  41
1
  42
1
  50
0
  71
0
  3
isocp.shx
  0
STYLE
  2
KICADI
  70
0
  40
0
  41
1
  42
1
  50
15
  71
0
  3
isocp.shx
  0
STYLE
  2
KICADBI
  70
0
  40
0
  41
1
  42
1
  50
15
  71
0
  3
isocp.shx
  0
ENDTAB
  0
TABLE
  2
LAYER
  70
1
  0
LAYER
  2
BLACK
  70
0
  62
7
  6
CONTINUOUS
  0
ENDTAB
  0
ENDSEC
  0
SECTION
  2
ENTITIES
0
LINE
8
BLACK
6
CONTINUOUS
10
235.004
20
-41.925
11
235.015
21
-41.9261
0
LINE
8
BLACK
6
CONTINUOUS
10
235.015
20
-41.9261
11
235.029
21
-41.9304
0
LINE
8
BLACK
6
CONTINUOUS
10
235.029
20
-41.9304
11
235.042
21
-41.9373
0
LINE
8
BLACK
6
CONTINUOUS
10
235.042
20
-41.9373
11
235.053
21
-41.9467
0
LINE
8
BLACK
6
CONTINUOUS
10
235.053
20
-41.9467
11
235.063
21
-41.9581
0
LINE
8
BLACK
6
CONTINUOUS
10
235.063
20
-41.9581
11
235.07
21
-41.9712
0
LINE
8
BLACK
6
CONTINUOUS
10
235.07
20
-41.9712
11
235.074
21
-41.9853
0
LINE
8
BLACK
6
CONTINUOUS
10
235.074
20
-41.9853
11
235.075
21
-42
0
LINE
8
BLACK
6
CONTINUOUS
10
235.075
20
-42
11
235.075
21
-42.0037
0
LINE
8
BLACK
6
CONTINUOUS
10
235.075
20
-42.0037
11
235.075
21
-141.996
0
LINE
8
BLACK
6
CONTINUOUS
10
235.075
20
-141.996
11
235.075
21
-142
0
LINE
8
BLACK
6
CONTINUOUS
10
235.075
20
-142
11
235.074
21
-142.015
0
LINE
8
BLACK
6
CONTINUOUS
10
235.074
20
-142.015
11
235.07
21
-142.029
0
LINE
8
BLACK
6
CONTINUOUS
10
235.07
20
-142.029
11
235.063
21
-142.042
0
LINE
8
BLACK
6
CONTINUOUS
10
235.063
20
-142.042
11
235.053
21
-142.053
0
LINE
8
BLACK
6
CONTINUOUS
10
235.053
20
-142.053
11
235.042
21
-142.063
0
LINE
8
BLACK
6
CONTINUOUS
10
235.042
20
-142.063
11
235.029
21
-142.07
0
LINE
8
BLACK
6
CONTINUOUS
10
235.029
20
-142.07
11
235.015
21
-142.074
0
LINE
8
BLACK
6
CONTINUOUS
10
235.015
20
-142.074
11
235.004
21
-142.075
0
LINE
8
BLACK
6
CONTINUOUS
10
235.004
20
-142.075
11
235
21
-142.075
0
LINE
8
BLACK
6
CONTINUOUS
10
235
20
-142.075
11
234.996
21
-142.075
0
LINE
8
BLACK
6
CONTINUOUS
10
234.996
20
-142.075
11
85.0037
21
-142.075
0
LINE
8
BLACK
6
CONTINUOUS
10
85.0037
20
-142.075
11
85
21
-142.075
0
LINE
8
BLACK
6
CONTINUOUS
10
85
20
-142.075
11
84.9853
21
-142.074
0
LINE
8
BLACK
6
CONTINUOUS
10
84.9853
20
-142.074
11
84.9712
21
-142.07
0
LINE
8
BLACK
6
CONTINUOUS
10
84.9712
20
-142.07
11
84.9581
21
-142.063
0
LINE
8
BLACK
6
CONTINUOUS
10
84.9581
20
-142.063
11
84.9467
21
-142.053
0
LINE
8
BLACK
6
CONTINUOUS
10
84.9467
20
-142.053
11
84.9373
21
-142.042
0
LINE
8
BLACK
6
CONTINUOUS
10
84.9373
20
-142.042
11
84.9304
21
-142.029
0
LINE
8
BLACK
6
CONTINUOUS
10
84.9304
20
-142.029
11
84.9261
21
-142.015
0
LINE
8
BLACK
6
CONTINUOUS
10
84.9261
20
-142.015
11
84.9246
21
-142
0
LINE
8
BLACK
6
CONTINUOUS
10
84.9246
20
-142
11
84.925
21
-141.996
0
LINE
8
BLACK
6
CONTINUOUS
10
84.925
20
-141.996
11
84.925
21
-42.0037
0
LINE
8
BLACK
6
CONTINUOUS
10
84.925
20
-42.0037
11
84.9246
21
-42
0
LINE
8
BLACK
6
CONTINUOUS
10
84.9246
20
-42
11
84.9261
21
-41.9853
0
LINE
8
BLACK
6
CONTINUOUS
10
84.9261
20
-41.9853
11
84.9304
21
-41.9712
0
LINE
8
BLACK
6
CONTINUOUS
10
84.9304
20
-41.9712
11
84.9373
21
-41.9581
0
LINE
8
BLACK
6
CONTINUOUS
10
84.9373
20
-41.9581
11
84.9467
21
-41.9467
0
LINE
8
BLACK
6
CONTINUOUS
10
84.9467
20
-41.9467
11
84.9581
21
-41.9373
0
LINE
8
BLACK
6
CONTINUOUS
10
84.9581
20
-41.9373
11
84.9712
21
-41.9304
0
LINE
8
BLACK
6
CONTINUOUS
10
84.9712
20
-41.9304
11
84.9853
21
-41.9261
0
LINE
8
BLACK
6
CONTINUOUS
10
84.9853
20
-41.9261
11
84.9963
21
-41.925
0
LINE
8
BLACK
6
CONTINUOUS
10
84.9963
20
-41.925
11
85
21
-41.9246
0
LINE
8
BLACK
6
CONTINUOUS
10
85
20
-41.9246
11
85.0037
21
-41.925
0
LINE
8
BLACK
6
CONTINUOUS
10
85.0037
20
-41.925
11
234.996
21
-41.925
0
LINE
8
BLACK
6
CONTINUOUS
10
234.996
20
-41.925
11
235
21
-41.9246
0
LINE
8
BLACK
6
CONTINUOUS
10
235
20
-41.9246
11
235.004
21
-41.925
0
LINE
8
BLACK
6
CONTINUOUS
10
85.075
20
-42.075
11
85.075
21
-141.925
0
LINE
8
BLACK
6
CONTINUOUS
10
85.075
20
-141.925
11
234.925
21
-141.925
0
LINE
8
BLACK
6
CONTINUOUS
10
234.925
20
-141.925
11
234.925
21
-42.075
0
LINE
8
BLACK
6
CONTINUOUS
10
234.925
20
-42.075
11
85.075
21
-42.075
0
LINE
8
BLACK
6
CONTINUOUS
10
199.498
20
-58.773
11
199.509
21
-58.7741
0
LINE
8
BLACK
6
CONTINUOUS
10
199.509
20
-58.7741
11
199.523
21
-58.7784
0
LINE
8
BLACK
6
CONTINUOUS
10
199.523
20
-58.7784
11
199.536
21
-58.7853
0
LINE
8
BLACK
6
CONTINUOUS
10
199.536
20
-58.7853
11
199.547
21
-58.7947
0
LINE
8
BLACK
6
CONTINUOUS
10
199.547
20
-58.7947
11
199.557
21
-58.8061
0
LINE
8
BLACK
6
CONTINUOUS
10
199.557
20
-58.8061
11
199.564
21
-58.8192
0
LINE
8
BLACK
6
CONTINUOUS
10
199.564
20
-58.8192
11
199.568
21
-58.8333
0
LINE
8
BLACK
6
CONTINUOUS
10
199.568
20
-58.8333
11
199.569
21
-58.848
0
LINE
8
BLACK
6
CONTINUOUS
10
199.569
20
-58.848
11
199.569
21
-58.8517
0
LINE
8
BLACK
6
CONTINUOUS
10
199.569
20
-58.8517
11
199.569
21
-110.844
0
LINE
8
BLACK
6
CONTINUOUS
10
199.569
20
-110.844
11
199.569
21
-110.848
0
LINE
8
BLACK
6
CONTINUOUS
10
199.569
20
-110.848
11
199.568
21
-110.863
0
LINE
8
BLACK
6
CONTINUOUS
10
199.568
20
-110.863
11
199.564
21
-110.877
0
LINE
8
BLACK
6
CONTINUOUS
10
199.564
20
-110.877
11
199.557
21
-110.89
0
LINE
8
BLACK
6
CONTINUOUS
10
199.557
20
-110.89
11
199.547
21
-110.901
0
LINE
8
BLACK
6
CONTINUOUS
10
199.547
20
-110.901
11
199.536
21
-110.911
0
LINE
8
BLACK
6
CONTINUOUS
10
199.536
20
-110.911
11
199.523
21
-110.918
0
LINE
8
BLACK
6
CONTINUOUS
10
199.523
20
-110.918
11
199.509
21
-110.922
0
LINE
8
BLACK
6
CONTINUOUS
10
199.509
20
-110.922
11
199.498
21
-110.923
0
LINE
8
BLACK
6
CONTINUOUS
10
199.498
20
-110.923
11
199.494
21
-110.923
0
LINE
8
BLACK
6
CONTINUOUS
10
199.494
20
-110.923
11
199.49
21
-110.923
0
LINE
8
BLACK
6
CONTINUOUS
10
199.49
20
-110.923
11
120.504
21
-110.923
0
LINE
8
BLACK
6
CONTINUOUS
10
120.504
20
-110.923
11
120.5
21
-110.923
0
LINE
8
BLACK
6
CONTINUOUS
10
120.5
20
-110.923
11
120.485
21
-110.922
0
LINE
8
BLACK
6
CONTINUOUS
10
120.485
20
-110.922
11
120.471
21
-110.918
0
LINE
8
BLACK
6
CONTINUOUS
10
120.471
20
-110.918
11
120.458
21
-110.911
0
LINE
8
BLACK
6
CONTINUOUS
10
120.458
20
-110.911
11
120.447
21
-110.901
0
LINE
8
BLACK
6
CONTINUOUS
10
120.447
20
-110.901
11
120.437
21
-110.89
0
LINE
8
BLACK
6
CONTINUOUS
10
120.437
20
-110.89
11
120.43
21
-110.877
0
LINE
8
BLACK
6
CONTINUOUS
10
120.43
20
-110.877
11
120.426
21
-110.863
0
LINE
8
BLACK
6
CONTINUOUS
10
120.426
20
-110.863
11
120.425
21
-110.848
0
LINE
8
BLACK
6
CONTINUOUS
10
120.425
20
-110.848
11
120.425
21
-110.844
0
LINE
8
BLACK
6
CONTINUOUS
10
120.425
20
-110.844
11
120.425
21
-58.8517
0
LINE
8
BLACK
6
CONTINUOUS
10
120.425
20
-58.8517
11
120.425
21
-58.848
0
LINE
8
BLACK
6
CONTINUOUS
10
120.425
20
-58.848
11
120.426
21
-58.8333
0
LINE
8
BLACK
6
CONTINUOUS
10
120.426
20
-58.8333
11
120.43
21
-58.8192
0
LINE
8
BLACK
6
CONTINUOUS
10
120.43
20
-58.8192
11
120.437
21
-58.8061
0
LINE
8
BLACK
6
CONTINUOUS
10
120.437
20
-58.8061
11
120.447
21
-58.7947
0
LINE
8
BLACK
6
CONTINUOUS
10
120.447
20
-58.7947
11
120.458
21
-58.7853
0
LINE
8
BLACK
6
CONTINUOUS
10
120.458
20
-58.7853
11
120.471
21
-58.7784
0
LINE
8
BLACK
6
CONTINUOUS
10
120.471
20
-58.7784
11
120.485
21
-58.7741
0
LINE
8
BLACK
6
CONTINUOUS
10
120.485
20
-58.7741
11
120.496
21
-58.773
0
LINE
8
BLACK
6
CONTINUOUS
10
120.496
20
-58.773
11
120.5
21
-58.7726
0
LINE
8
BLACK
6
CONTINUOUS
10
120.5
20
-58.7726
11
120.504
21
-58.773
0
LINE
8
BLACK
6
CONTINUOUS
10
120.504
20
-58.773
11
199.49
21
-58.773
0
LINE
8
BLACK
6
CONTINUOUS
10
199.49
20
-58.773
11
199.494
21
-58.7726
0
LINE
8
BLACK
6
CONTINUOUS
10
199.494
20
-58.7726
11
199.498
21
-58.773
0
LINE
8
BLACK
6
CONTINUOUS
10
120.575
20
-58.923
11
120.575
21
-110.773
0
LINE
8
BLACK
6
CONTINUOUS
10
120.575
20
-110.773
11
199.419
21
-110.773
0
LINE
8
BLACK
6
CONTINUOUS
10
199.419
20
-110.773
11
199.419
21
-58.923
0
LINE
8
BLACK
6
CONTINUOUS
10
199.419
20
-58.923
11
120.575
21
-58.923
0
LINE
8
BLACK
6
CONTINUOUS
10
85.6539
20
-138.313
11
85.8315
21
-137.884
0
LINE
8
BLACK
6
CONTINUOUS
10
85.8315
20
-137.884
11
86.0893
21
-137.498
0
LINE
8
BLACK
6
CONTINUOUS
10
86.0893
20
-137.498
11
86.4174
21
-137.17
0
LINE
8
BLACK
6
CONTINUOUS
10
86.4174
20
-137.17
11
86.8031
21
-136.913
0
LINE
8
BLACK
6
CONTINUOUS
10
86.8031
20
-136.913
11
87.2318
21
-136.735
0
LINE
8
BLACK
6
CONTINUOUS
10
87.2318
20
-136.735
11
87.6869
21
-136.645
0
LINE
8
BLACK
6
CONTINUOUS
10
87.6869
20
-136.645
11
88.1509
21
-136.645
0
LINE
8
BLACK
6
CONTINUOUS
10
88.1509
20
-136.645
11
88.6059
21
-136.735
0
LINE
8
BLACK
6
CONTINUOUS
10
88.6059
20
-136.735
11
89.0346
21
-136.913
0
LINE
8
BLACK
6
CONTINUOUS
10
89.0346
20
-136.913
11
89.4204
21
-137.17
0
LINE
8
BLACK
6
CONTINUOUS
10
89.4204
20
-137.17
11
89.7485
21
-137.498
0
LINE
8
BLACK
6
CONTINUOUS
10
89.7485
20
-137.498
11
90.0062
21
-137.884
0
LINE
8
BLACK
6
CONTINUOUS
10
90.0062
20
-137.884
11
90.1838
21
-138.313
0
LINE
8
BLACK
6
CONTINUOUS
10
90.1838
20
-138.313
11
90.2743
21
-138.768
0
LINE
8
BLACK
6
CONTINUOUS
10
90.2743
20
-138.768
11
90.2743
21
-139.232
0
LINE
8
BLACK
6
CONTINUOUS
10
90.2743
20
-139.232
11
90.1838
21
-139.687
0
LINE
8
BLACK
6
CONTINUOUS
10
90.1838
20
-139.687
11
90.0062
21
-140.116
0
LINE
8
BLACK
6
CONTINUOUS
10
90.0062
20
-140.116
11
89.7485
21
-140.502
0
LINE
8
BLACK
6
CONTINUOUS
10
89.7485
20
-140.502
11
89.4204
21
-140.83
0
LINE
8
BLACK
6
CONTINUOUS
10
89.4204
20
-140.83
11
89.0346
21
-141.087
0
LINE
8
BLACK
6
CONTINUOUS
10
89.0346
20
-141.087
11
88.6059
21
-141.265
0
LINE
8
BLACK
6
CONTINUOUS
10
88.6059
20
-141.265
11
88.1509
21
-141.355
0
LINE
8
BLACK
6
CONTINUOUS
10
88.1509
20
-141.355
11
87.6869
21
-141.355
0
LINE
8
BLACK
6
CONTINUOUS
10
87.6869
20
-141.355
11
87.2318
21
-141.265
0
LINE
8
BLACK
6
CONTINUOUS
10
87.2318
20
-141.265
11
86.8031
21
-141.087
0
LINE
8
BLACK
6
CONTINUOUS
10
86.8031
20
-141.087
11
86.4174
21
-140.83
0
LINE
8
BLACK
6
CONTINUOUS
10
86.4174
20
-140.83
11
86.0893
21
-140.502
0
LINE
8
BLACK
6
CONTINUOUS
10
86.0893
20
-140.502
11
85.8315
21
-140.116
0
LINE
8
BLACK
6
CONTINUOUS
10
85.8315
20
-140.116
11
85.6539
21
-139.687
0
LINE
8
BLACK
6
CONTINUOUS
10
85.6539
20
-139.687
11
85.5634
21
-139.232
0
LINE
8
BLACK
6
CONTINUOUS
10
85.5634
20
-139.232
11
85.5634
21
-138.768
0
LINE
8
BLACK
6
CONTINUOUS
10
85.5634
20
-138.768
11
85.6539
21
-138.313
0
LINE
8
BLACK
6
CONTINUOUS
10
85.8166
20
-139.638
11
85.9814
21
-140.036
0
LINE
8
BLACK
6
CONTINUOUS
10
85.9814
20
-140.036
11
86.2207
21
-140.394
0
LINE
8
BLACK
6
CONTINUOUS
10
86.2207
20
-140.394
11
86.5252
21
-140.698
0
LINE
8
BLACK
6
CONTINUOUS
10
86.5252
20
-140.698
11
86.8833
21
-140.937
0
LINE
8
BLACK
6
CONTINUOUS
10
86.8833
20
-140.937
11
87.2812
21
-141.102
0
LINE
8
BLACK
6
CONTINUOUS
10
87.2812
20
-141.102
11
87.7035
21
-141.186
0
LINE
8
BLACK
6
CONTINUOUS
10
87.7035
20
-141.186
11
88.1342
21
-141.186
0
LINE
8
BLACK
6
CONTINUOUS
10
88.1342
20
-141.186
11
88.5566
21
-141.102
0
LINE
8
BLACK
6
CONTINUOUS
10
88.5566
20
-141.102
11
88.9544
21
-140.937
0
LINE
8
BLACK
6
CONTINUOUS
10
88.9544
20
-140.937
11
89.3125
21
-140.698
0
LINE
8
BLACK
6
CONTINUOUS
10
89.3125
20
-140.698
11
89.617
21
-140.394
0
LINE
8
BLACK
6
CONTINUOUS
10
89.617
20
-140.394
11
89.8563
21
-140.036
0
LINE
8
BLACK
6
CONTINUOUS
10
89.8563
20
-140.036
11
90.0211
21
-139.638
0
LINE
8
BLACK
6
CONTINUOUS
10
90.0211
20
-139.638
11
90.1051
21
-139.215
0
LINE
8
BLACK
6
CONTINUOUS
10
90.1051
20
-139.215
11
90.1051
21
-138.785
0
LINE
8
BLACK
6
CONTINUOUS
10
90.1051
20
-138.785
11
90.0211
21
-138.362
0
LINE
8
BLACK
6
CONTINUOUS
10
90.0211
20
-138.362
11
89.8563
21
-137.964
0
LINE
8
BLACK
6
CONTINUOUS
10
89.8563
20
-137.964
11
89.617
21
-137.606
0
LINE
8
BLACK
6
CONTINUOUS
10
89.617
20
-137.606
11
89.3125
21
-137.302
0
LINE
8
BLACK
6
CONTINUOUS
10
89.3125
20
-137.302
11
88.9544
21
-137.063
0
LINE
8
BLACK
6
CONTINUOUS
10
88.9544
20
-137.063
11
88.5566
21
-136.898
0
LINE
8
BLACK
6
CONTINUOUS
10
88.5566
20
-136.898
11
88.1342
21
-136.814
0
LINE
8
BLACK
6
CONTINUOUS
10
88.1342
20
-136.814
11
87.7035
21
-136.814
0
LINE
8
BLACK
6
CONTINUOUS
10
87.7035
20
-136.814
11
87.2812
21
-136.898
0
LINE
8
BLACK
6
CONTINUOUS
10
87.2812
20
-136.898
11
86.8833
21
-137.063
0
LINE
8
BLACK
6
CONTINUOUS
10
86.8833
20
-137.063
11
86.5252
21
-137.302
0
LINE
8
BLACK
6
CONTINUOUS
10
86.5252
20
-137.302
11
86.2207
21
-137.606
0
LINE
8
BLACK
6
CONTINUOUS
10
86.2207
20
-137.606
11
85.9814
21
-137.964
0
LINE
8
BLACK
6
CONTINUOUS
10
85.9814
20
-137.964
11
85.8166
21
-138.362
0
LINE
8
BLACK
6
CONTINUOUS
10
85.8166
20
-138.362
11
85.7326
21
-138.785
0
LINE
8
BLACK
6
CONTINUOUS
10
85.7326
20
-138.785
11
85.7326
21
-139.215
0
LINE
8
BLACK
6
CONTINUOUS
10
85.7326
20
-139.215
11
85.8166
21
-139.638
0
LINE
8
BLACK
6
CONTINUOUS
10
229.735
20
-138.232
11
229.913
21
-137.803
0
LINE
8
BLACK
6
CONTINUOUS
10
229.913
20
-137.803
11
230.17
21
-137.417
0
LINE
8
BLACK
6
CONTINUOUS
10
230.17
20
-137.417
11
230.498
21
-137.089
0
LINE
8
BLACK
6
CONTINUOUS
10
230.498
20
-137.089
11
230.884
21
-136.831
0
LINE
8
BLACK
6
CONTINUOUS
10
230.884
20
-136.831
11
231.313
21
-136.654
0
LINE
8
BLACK
6
CONTINUOUS
10
231.313
20
-136.654
11
231.768
21
-136.563
0
LINE
8
BLACK
6
CONTINUOUS
10
231.768
20
-136.563
11
232.232
21
-136.563
0
LINE
8
BLACK
6
CONTINUOUS
10
232.232
20
-136.563
11
232.687
21
-136.654
0
LINE
8
BLACK
6
CONTINUOUS
10
232.687
20
-136.654
11
233.116
21
-136.831
0
LINE
8
BLACK
6
CONTINUOUS
10
233.116
20
-136.831
11
233.502
21
-137.089
0
LINE
8
BLACK
6
CONTINUOUS
10
233.502
20
-137.089
11
233.83
21
-137.417
0
LINE
8
BLACK
6
CONTINUOUS
10
233.83
20
-137.417
11
234.087
21
-137.803
0
LINE
8
BLACK
6
CONTINUOUS
10
234.087
20
-137.803
11
234.265
21
-138.232
0
LINE
8
BLACK
6
CONTINUOUS
10
234.265
20
-138.232
11
234.355
21
-138.687
0
LINE
8
BLACK
6
CONTINUOUS
10
234.355
20
-138.687
11
234.355
21
-139.151
0
LINE
8
BLACK
6
CONTINUOUS
10
234.355
20
-139.151
11
234.265
21
-139.606
0
LINE
8
BLACK
6
CONTINUOUS
10
234.265
20
-139.606
11
234.087
21
-140.035
0
LINE
8
BLACK
6
CONTINUOUS
10
234.087
20
-140.035
11
233.83
21
-140.42
0
LINE
8
BLACK
6
CONTINUOUS
10
233.83
20
-140.42
11
233.502
21
-140.748
0
LINE
8
BLACK
6
CONTINUOUS
10
233.502
20
-140.748
11
233.116
21
-141.006
0
LINE
8
BLACK
6
CONTINUOUS
10
233.116
20
-141.006
11
232.687
21
-141.184
0
LINE
8
BLACK
6
CONTINUOUS
10
232.687
20
-141.184
11
232.232
21
-141.274
0
LINE
8
BLACK
6
CONTINUOUS
10
232.232
20
-141.274
11
231.768
21
-141.274
0
LINE
8
BLACK
6
CONTINUOUS
10
231.768
20
-141.274
11
231.313
21
-141.184
0
LINE
8
BLACK
6
CONTINUOUS
10
231.313
20
-141.184
11
230.884
21
-141.006
0
LINE
8
BLACK
6
CONTINUOUS
10
230.884
20
-141.006
11
230.498
21
-140.748
0
LINE
8
BLACK
6
CONTINUOUS
10
230.498
20
-140.748
11
230.17
21
-140.42
0
LINE
8
BLACK
6
CONTINUOUS
10
230.17
20
-140.42
11
229.913
21
-140.035
0
LINE
8
BLACK
6
CONTINUOUS
10
229.913
20
-140.035
11
229.735
21
-139.606
0
LINE
8
BLACK
6
CONTINUOUS
10
229.735
20
-139.606
11
229.645
21
-139.151
0
LINE
8
BLACK
6
CONTINUOUS
10
229.645
20
-139.151
11
229.645
21
-138.687
0
LINE
8
BLACK
6
CONTINUOUS
10
229.645
20
-138.687
11
229.735
21
-138.232
0
LINE
8
BLACK
6
CONTINUOUS
10
229.898
20
-139.557
11
230.063
21
-139.954
0
LINE
8
BLACK
6
CONTINUOUS
10
230.063
20
-139.954
11
230.302
21
-140.313
0
LINE
8
BLACK
6
CONTINUOUS
10
230.302
20
-140.313
11
230.606
21
-140.617
0
LINE
8
BLACK
6
CONTINUOUS
10
230.606
20
-140.617
11
230.964
21
-140.856
0
LINE
8
BLACK
6
CONTINUOUS
10
230.964
20
-140.856
11
231.362
21
-141.021
0
LINE
8
BLACK
6
CONTINUOUS
10
231.362
20
-141.021
11
231.785
21
-141.105
0
LINE
8
BLACK
6
CONTINUOUS
10
231.785
20
-141.105
11
232.215
21
-141.105
0
LINE
8
BLACK
6
CONTINUOUS
10
232.215
20
-141.105
11
232.638
21
-141.021
0
LINE
8
BLACK
6
CONTINUOUS
10
232.638
20
-141.021
11
233.036
21
-140.856
0
LINE
8
BLACK
6
CONTINUOUS
10
233.036
20
-140.856
11
233.394
21
-140.617
0
LINE
8
BLACK
6
CONTINUOUS
10
233.394
20
-140.617
11
233.698
21
-140.313
0
LINE
8
BLACK
6
CONTINUOUS
10
233.698
20
-140.313
11
233.937
21
-139.954
0
LINE
8
BLACK
6
CONTINUOUS
10
233.937
20
-139.954
11
234.102
21
-139.557
0
LINE
8
BLACK
6
CONTINUOUS
10
234.102
20
-139.557
11
234.186
21
-139.134
0
LINE
8
BLACK
6
CONTINUOUS
10
234.186
20
-139.134
11
234.186
21
-138.704
0
LINE
8
BLACK
6
CONTINUOUS
10
234.186
20
-138.704
11
234.102
21
-138.281
0
LINE
8
BLACK
6
CONTINUOUS
10
234.102
20
-138.281
11
233.937
21
-137.883
0
LINE
8
BLACK
6
CONTINUOUS
10
233.937
20
-137.883
11
233.698
21
-137.525
0
LINE
8
BLACK
6
CONTINUOUS
10
233.698
20
-137.525
11
233.394
21
-137.221
0
LINE
8
BLACK
6
CONTINUOUS
10
233.394
20
-137.221
11
233.036
21
-136.981
0
LINE
8
BLACK
6
CONTINUOUS
10
233.036
20
-136.981
11
232.638
21
-136.817
0
LINE
8
BLACK
6
CONTINUOUS
10
232.638
20
-136.817
11
232.215
21
-136.733
0
LINE
8
BLACK
6
CONTINUOUS
10
232.215
20
-136.733
11
231.785
21
-136.733
0
LINE
8
BLACK
6
CONTINUOUS
10
231.785
20
-136.733
11
231.362
21
-136.817
0
LINE
8
BLACK
6
CONTINUOUS
10
231.362
20
-136.817
11
230.964
21
-136.981
0
LINE
8
BLACK
6
CONTINUOUS
10
230.964
20
-136.981
11
230.606
21
-137.221
0
LINE
8
BLACK
6
CONTINUOUS
10
230.606
20
-137.221
11
230.302
21
-137.525
0
LINE
8
BLACK
6
CONTINUOUS
10
230.302
20
-137.525
11
230.063
21
-137.883
0
LINE
8
BLACK
6
CONTINUOUS
10
230.063
20
-137.883
11
229.898
21
-138.281
0
LINE
8
BLACK
6
CONTINUOUS
10
229.898
20
-138.281
11
229.814
21
-138.704
0
LINE
8
BLACK
6
CONTINUOUS
10
229.814
20
-138.704
11
229.814
21
-139.134
0
LINE
8
BLACK
6
CONTINUOUS
10
229.814
20
-139.134
11
229.898
21
-139.557
0
LINE
8
BLACK
6
CONTINUOUS
10
186.512
20
-131.309
11
186.824
21
-130.505
0
LINE
8
BLACK
6
CONTINUOUS
10
186.824
20
-130.505
11
187.278
21
-129.771
0
LINE
8
BLACK
6
CONTINUOUS
10
187.278
20
-129.771
11
187.859
21
-129.134
0
LINE
8
BLACK
6
CONTINUOUS
10
187.859
20
-129.134
11
188.547
21
-128.614
0
LINE
8
BLACK
6
CONTINUOUS
10
188.547
20
-128.614
11
189.32
21
-128.23
0
LINE
8
BLACK
6
CONTINUOUS
10
189.32
20
-128.23
11
190.149
21
-127.994
0
LINE
8
BLACK
6
CONTINUOUS
10
190.149
20
-127.994
11
191.008
21
-127.914
0
LINE
8
BLACK
6
CONTINUOUS
10
191.008
20
-127.914
11
191.867
21
-127.994
0
LINE
8
BLACK
6
CONTINUOUS
10
191.867
20
-127.994
11
192.696
21
-128.23
0
LINE
8
BLACK
6
CONTINUOUS
10
192.696
20
-128.23
11
193.469
21
-128.614
0
LINE
8
BLACK
6
CONTINUOUS
10
193.469
20
-128.614
11
194.157
21
-129.134
0
LINE
8
BLACK
6
CONTINUOUS
10
194.157
20
-129.134
11
194.738
21
-129.771
0
LINE
8
BLACK
6
CONTINUOUS
10
194.738
20
-129.771
11
195.192
21
-130.505
0
LINE
8
BLACK
6
CONTINUOUS
10
195.192
20
-130.505
11
195.504
21
-131.309
0
LINE
8
BLACK
6
CONTINUOUS
10
195.504
20
-131.309
11
195.662
21
-132.157
0
LINE
8
BLACK
6
CONTINUOUS
10
195.662
20
-132.157
11
195.662
21
-133.019
0
LINE
8
BLACK
6
CONTINUOUS
10
195.662
20
-133.019
11
195.504
21
-133.867
0
LINE
8
BLACK
6
CONTINUOUS
10
195.504
20
-133.867
11
195.192
21
-134.671
0
LINE
8
BLACK
6
CONTINUOUS
10
195.192
20
-134.671
11
194.738
21
-135.405
0
LINE
8
BLACK
6
CONTINUOUS
10
194.738
20
-135.405
11
194.157
21
-136.042
0
LINE
8
BLACK
6
CONTINUOUS
10
194.157
20
-136.042
11
193.469
21
-136.562
0
LINE
8
BLACK
6
CONTINUOUS
10
193.469
20
-136.562
11
192.696
21
-136.946
0
LINE
8
BLACK
6
CONTINUOUS
10
192.696
20
-136.946
11
191.867
21
-137.182
0
LINE
8
BLACK
6
CONTINUOUS
10
191.867
20
-137.182
11
191.008
21
-137.262
0
LINE
8
BLACK
6
CONTINUOUS
10
191.008
20
-137.262
11
190.149
21
-137.182
0
LINE
8
BLACK
6
CONTINUOUS
10
190.149
20
-137.182
11
189.32
21
-136.946
0
LINE
8
BLACK
6
CONTINUOUS
10
189.32
20
-136.946
11
188.547
21
-136.562
0
LINE
8
BLACK
6
CONTINUOUS
10
188.547
20
-136.562
11
187.859
21
-136.042
0
LINE
8
BLACK
6
CONTINUOUS
10
187.859
20
-136.042
11
187.278
21
-135.405
0
LINE
8
BLACK
6
CONTINUOUS
10
187.278
20
-135.405
11
186.824
21
-134.671
0
LINE
8
BLACK
6
CONTINUOUS
10
186.824
20
-134.671
11
186.512
21
-133.867
0
LINE
8
BLACK
6
CONTINUOUS
10
186.512
20
-133.867
11
186.354
21
-133.019
0
LINE
8
BLACK
6
CONTINUOUS
10
186.354
20
-133.019
11
186.354
21
-132.157
0
LINE
8
BLACK
6
CONTINUOUS
10
186.354
20
-132.157
11
186.512
21
-131.309
0
LINE
8
BLACK
6
CONTINUOUS
10
186.676
20
-133.821
11
186.976
21
-134.596
0
LINE
8
BLACK
6
CONTINUOUS
10
186.976
20
-134.596
11
187.414
21
-135.302
0
LINE
8
BLACK
6
CONTINUOUS
10
187.414
20
-135.302
11
187.974
21
-135.917
0
LINE
8
BLACK
6
CONTINUOUS
10
187.974
20
-135.917
11
188.637
21
-136.417
0
LINE
8
BLACK
6
CONTINUOUS
10
188.637
20
-136.417
11
189.381
21
-136.788
0
LINE
8
BLACK
6
CONTINUOUS
10
189.381
20
-136.788
11
190.18
21
-137.015
0
LINE
8
BLACK
6
CONTINUOUS
10
190.18
20
-137.015
11
191.008
21
-137.092
0
LINE
8
BLACK
6
CONTINUOUS
10
191.008
20
-137.092
11
191.836
21
-137.015
0
LINE
8
BLACK
6
CONTINUOUS
10
191.836
20
-137.015
11
192.635
21
-136.788
0
LINE
8
BLACK
6
CONTINUOUS
10
192.635
20
-136.788
11
193.379
21
-136.417
0
LINE
8
BLACK
6
CONTINUOUS
10
193.379
20
-136.417
11
194.042
21
-135.917
0
LINE
8
BLACK
6
CONTINUOUS
10
194.042
20
-135.917
11
194.602
21
-135.302
0
LINE
8
BLACK
6
CONTINUOUS
10
194.602
20
-135.302
11
195.04
21
-134.596
0
LINE
8
BLACK
6
CONTINUOUS
10
195.04
20
-134.596
11
195.34
21
-133.821
0
LINE
8
BLACK
6
CONTINUOUS
10
195.34
20
-133.821
11
195.493
21
-133.004
0
LINE
8
BLACK
6
CONTINUOUS
10
195.493
20
-133.004
11
195.493
21
-132.172
0
LINE
8
BLACK
6
CONTINUOUS
10
195.493
20
-132.172
11
195.34
21
-131.355
0
LINE
8
BLACK
6
CONTINUOUS
10
195.34
20
-131.355
11
195.04
21
-130.58
0
LINE
8
BLACK
6
CONTINUOUS
10
195.04
20
-130.58
11
194.602
21
-129.874
0
LINE
8
BLACK
6
CONTINUOUS
10
194.602
20
-129.874
11
194.042
21
-129.259
0
LINE
8
BLACK
6
CONTINUOUS
10
194.042
20
-129.259
11
193.379
21
-128.759
0
LINE
8
BLACK
6
CONTINUOUS
10
193.379
20
-128.759
11
192.635
21
-128.388
0
LINE
8
BLACK
6
CONTINUOUS
10
192.635
20
-128.388
11
191.836
21
-128.161
0
LINE
8
BLACK
6
CONTINUOUS
10
191.836
20
-128.161
11
191.008
21
-128.084
0
LINE
8
BLACK
6
CONTINUOUS
10
191.008
20
-128.084
11
190.18
21
-128.161
0
LINE
8
BLACK
6
CONTINUOUS
10
190.18
20
-128.161
11
189.381
21
-128.388
0
LINE
8
BLACK
6
CONTINUOUS
10
189.381
20
-128.388
11
188.637
21
-128.759
0
LINE
8
BLACK
6
CONTINUOUS
10
188.637
20
-128.759
11
187.974
21
-129.259
0
LINE
8
BLACK
6
CONTINUOUS
10
187.974
20
-129.259
11
187.414
21
-129.874
0
LINE
8
BLACK
6
CONTINUOUS
10
187.414
20
-129.874
11
186.976
21
-130.58
0
LINE
8
BLACK
6
CONTINUOUS
10
186.976
20
-130.58
11
186.676
21
-131.355
0
LINE
8
BLACK
6
CONTINUOUS
10
186.676
20
-131.355
11
186.523
21
-132.172
0
LINE
8
BLACK
6
CONTINUOUS
10
186.523
20
-132.172
11
186.523
21
-133.004
0
LINE
8
BLACK
6
CONTINUOUS
10
186.523
20
-133.004
11
186.676
21
-133.821
0
LINE
8
BLACK
6
CONTINUOUS
10
145.364
20
-131.309
11
145.676
21
-130.505
0
LINE
8
BLACK
6
CONTINUOUS
10
145.676
20
-130.505
11
146.13
21
-129.771
0
LINE
8
BLACK
6
CONTINUOUS
10
146.13
20
-129.771
11
146.711
21
-129.134
0
LINE
8
BLACK
6
CONTINUOUS
10
146.711
20
-129.134
11
147.399
21
-128.614
0
LINE
8
BLACK
6
CONTINUOUS
10
147.399
20
-128.614
11
148.172
21
-128.23
0
LINE
8
BLACK
6
CONTINUOUS
10
148.172
20
-128.23
11
149.001
21
-127.994
0
LINE
8
BLACK
6
CONTINUOUS
10
149.001
20
-127.994
11
149.86
21
-127.914
0
LINE
8
BLACK
6
CONTINUOUS
10
149.86
20
-127.914
11
150.719
21
-127.994
0
LINE
8
BLACK
6
CONTINUOUS
10
150.719
20
-127.994
11
151.548
21
-128.23
0
LINE
8
BLACK
6
CONTINUOUS
10
151.548
20
-128.23
11
152.321
21
-128.614
0
LINE
8
BLACK
6
CONTINUOUS
10
152.321
20
-128.614
11
153.009
21
-129.134
0
LINE
8
BLACK
6
CONTINUOUS
10
153.009
20
-129.134
11
153.59
21
-129.771
0
LINE
8
BLACK
6
CONTINUOUS
10
153.59
20
-129.771
11
154.044
21
-130.505
0
LINE
8
BLACK
6
CONTINUOUS
10
154.044
20
-130.505
11
154.356
21
-131.309
0
LINE
8
BLACK
6
CONTINUOUS
10
154.356
20
-131.309
11
154.514
21
-132.157
0
LINE
8
BLACK
6
CONTINUOUS
10
154.514
20
-132.157
11
154.514
21
-133.019
0
LINE
8
BLACK
6
CONTINUOUS
10
154.514
20
-133.019
11
154.356
21
-133.867
0
LINE
8
BLACK
6
CONTINUOUS
10
154.356
20
-133.867
11
154.044
21
-134.671
0
LINE
8
BLACK
6
CONTINUOUS
10
154.044
20
-134.671
11
153.59
21
-135.405
0
LINE
8
BLACK
6
CONTINUOUS
10
153.59
20
-135.405
11
153.009
21
-136.042
0
LINE
8
BLACK
6
CONTINUOUS
10
153.009
20
-136.042
11
152.321
21
-136.562
0
LINE
8
BLACK
6
CONTINUOUS
10
152.321
20
-136.562
11
151.548
21
-136.946
0
LINE
8
BLACK
6
CONTINUOUS
10
151.548
20
-136.946
11
150.719
21
-137.182
0
LINE
8
BLACK
6
CONTINUOUS
10
150.719
20
-137.182
11
149.86
21
-137.262
0
LINE
8
BLACK
6
CONTINUOUS
10
149.86
20
-137.262
11
149.001
21
-137.182
0
LINE
8
BLACK
6
CONTINUOUS
10
149.001
20
-137.182
11
148.172
21
-136.946
0
LINE
8
BLACK
6
CONTINUOUS
10
148.172
20
-136.946
11
147.399
21
-136.562
0
LINE
8
BLACK
6
CONTINUOUS
10
147.399
20
-136.562
11
146.711
21
-136.042
0
LINE
8
BLACK
6
CONTINUOUS
10
146.711
20
-136.042
11
146.13
21
-135.405
0
LINE
8
BLACK
6
CONTINUOUS
10
146.13
20
-135.405
11
145.676
21
-134.671
0
LINE
8
BLACK
6
CONTINUOUS
10
145.676
20
-134.671
11
145.364
21
-133.867
0
LINE
8
BLACK
6
CONTINUOUS
10
145.364
20
-133.867
11
145.206
21
-133.019
0
LINE
8
BLACK
6
CONTINUOUS
10
145.206
20
-133.019
11
145.206
21
-132.157
0
LINE
8
BLACK
6
CONTINUOUS
10
145.206
20
-132.157
11
145.364
21
-131.309
0
LINE
8
BLACK
6
CONTINUOUS
10
145.528
20
-133.821
11
145.828
21
-134.596
0
LINE
8
BLACK
6
CONTINUOUS
10
145.828
20
-134.596
11
146.266
21
-135.302
0
LINE
8
BLACK
6
CONTINUOUS
10
146.266
20
-135.302
11
146.826
21
-135.917
0
LINE
8
BLACK
6
CONTINUOUS
10
146.826
20
-135.917
11
147.489
21
-136.417
0
LINE
8
BLACK
6
CONTINUOUS
10
147.489
20
-136.417
11
148.233
21
-136.788
0
LINE
8
BLACK
6
CONTINUOUS
10
148.233
20
-136.788
11
149.032
21
-137.015
0
LINE
8
BLACK
6
CONTINUOUS
10
149.032
20
-137.015
11
149.86
21
-137.092
0
LINE
8
BLACK
6
CONTINUOUS
10
149.86
20
-137.092
11
150.688
21
-137.015
0
LINE
8
BLACK
6
CONTINUOUS
10
150.688
20
-137.015
11
151.487
21
-136.788
0
LINE
8
BLACK
6
CONTINUOUS
10
151.487
20
-136.788
11
152.231
21
-136.417
0
LINE
8
BLACK
6
CONTINUOUS
10
152.231
20
-136.417
11
152.894
21
-135.917
0
LINE
8
BLACK
6
CONTINUOUS
10
152.894
20
-135.917
11
153.454
21
-135.302
0
LINE
8
BLACK
6
CONTINUOUS
10
153.454
20
-135.302
11
153.892
21
-134.596
0
LINE
8
BLACK
6
CONTINUOUS
10
153.892
20
-134.596
11
154.192
21
-133.821
0
LINE
8
BLACK
6
CONTINUOUS
10
154.192
20
-133.821
11
154.345
21
-133.004
0
LINE
8
BLACK
6
CONTINUOUS
10
154.345
20
-133.004
11
154.345
21
-132.172
0
LINE
8
BLACK
6
CONTINUOUS
10
154.345
20
-132.172
11
154.192
21
-131.355
0
LINE
8
BLACK
6
CONTINUOUS
10
154.192
20
-131.355
11
153.892
21
-130.58
0
LINE
8
BLACK
6
CONTINUOUS
10
153.892
20
-130.58
11
153.454
21
-129.874
0
LINE
8
BLACK
6
CONTINUOUS
10
153.454
20
-129.874
11
152.894
21
-129.259
0
LINE
8
BLACK
6
CONTINUOUS
10
152.894
20
-129.259
11
152.231
21
-128.759
0
LINE
8
BLACK
6
CONTINUOUS
10
152.231
20
-128.759
11
151.487
21
-128.388
0
LINE
8
BLACK
6
CONTINUOUS
10
151.487
20
-128.388
11
150.688
21
-128.161
0
LINE
8
BLACK
6
CONTINUOUS
10
150.688
20
-128.161
11
149.86
21
-128.084
0
LINE
8
BLACK
6
CONTINUOUS
10
149.86
20
-128.084
11
149.032
21
-128.161
0
LINE
8
BLACK
6
CONTINUOUS
10
149.032
20
-128.161
11
148.233
21
-128.388
0
LINE
8
BLACK
6
CONTINUOUS
10
148.233
20
-128.388
11
147.489
21
-128.759
0
LINE
8
BLACK
6
CONTINUOUS
10
147.489
20
-128.759
11
146.826
21
-129.259
0
LINE
8
BLACK
6
CONTINUOUS
10
146.826
20
-129.259
11
146.266
21
-129.874
0
LINE
8
BLACK
6
CONTINUOUS
10
146.266
20
-129.874
11
145.828
21
-130.58
0
LINE
8
BLACK
6
CONTINUOUS
10
145.828
20
-130.58
11
145.528
21
-131.355
0
LINE
8
BLACK
6
CONTINUOUS
10
145.528
20
-131.355
11
145.375
21
-132.172
0
LINE
8
BLACK
6
CONTINUOUS
10
145.375
20
-132.172
11
145.375
21
-133.004
0
LINE
8
BLACK
6
CONTINUOUS
10
145.375
20
-133.004
11
145.528
21
-133.821
0
LINE
8
BLACK
6
CONTINUOUS
10
124.79
20
-131.309
11
125.102
21
-130.505
0
LINE
8
BLACK
6
CONTINUOUS
10
125.102
20
-130.505
11
125.556
21
-129.771
0
LINE
8
BLACK
6
CONTINUOUS
10
125.556
20
-129.771
11
126.137
21
-129.134
0
LINE
8
BLACK
6
CONTINUOUS
10
126.137
20
-129.134
11
126.825
21
-128.614
0
LINE
8
BLACK
6
CONTINUOUS
10
126.825
20
-128.614
11
127.598
21
-128.23
0
LINE
8
BLACK
6
CONTINUOUS
10
127.598
20
-128.23
11
128.427
21
-127.994
0
LINE
8
BLACK
6
CONTINUOUS
10
128.427
20
-127.994
11
129.286
21
-127.914
0
LINE
8
BLACK
6
CONTINUOUS
10
129.286
20
-127.914
11
130.145
21
-127.994
0
LINE
8
BLACK
6
CONTINUOUS
10
130.145
20
-127.994
11
130.974
21
-128.23
0
LINE
8
BLACK
6
CONTINUOUS
10
130.974
20
-128.23
11
131.747
21
-128.614
0
LINE
8
BLACK
6
CONTINUOUS
10
131.747
20
-128.614
11
132.435
21
-129.134
0
LINE
8
BLACK
6
CONTINUOUS
10
132.435
20
-129.134
11
133.016
21
-129.771
0
LINE
8
BLACK
6
CONTINUOUS
10
133.016
20
-129.771
11
133.47
21
-130.505
0
LINE
8
BLACK
6
CONTINUOUS
10
133.47
20
-130.505
11
133.782
21
-131.309
0
LINE
8
BLACK
6
CONTINUOUS
10
133.782
20
-131.309
11
133.94
21
-132.157
0
LINE
8
BLACK
6
CONTINUOUS
10
133.94
20
-132.157
11
133.94
21
-133.019
0
LINE
8
BLACK
6
CONTINUOUS
10
133.94
20
-133.019
11
133.782
21
-133.867
0
LINE
8
BLACK
6
CONTINUOUS
10
133.782
20
-133.867
11
133.47
21
-134.671
0
LINE
8
BLACK
6
CONTINUOUS
10
133.47
20
-134.671
11
133.016
21
-135.405
0
LINE
8
BLACK
6
CONTINUOUS
10
133.016
20
-135.405
11
132.435
21
-136.042
0
LINE
8
BLACK
6
CONTINUOUS
10
132.435
20
-136.042
11
131.747
21
-136.562
0
LINE
8
BLACK
6
CONTINUOUS
10
131.747
20
-136.562
11
130.974
21
-136.946
0
LINE
8
BLACK
6
CONTINUOUS
10
130.974
20
-136.946
11
130.145
21
-137.182
0
LINE
8
BLACK
6
CONTINUOUS
10
130.145
20
-137.182
11
129.286
21
-137.262
0
LINE
8
BLACK
6
CONTINUOUS
10
129.286
20
-137.262
11
128.427
21
-137.182
0
LINE
8
BLACK
6
CONTINUOUS
10
128.427
20
-137.182
11
127.598
21
-136.946
0
LINE
8
BLACK
6
CONTINUOUS
10
127.598
20
-136.946
11
126.825
21
-136.562
0
LINE
8
BLACK
6
CONTINUOUS
10
126.825
20
-136.562
11
126.137
21
-136.042
0
LINE
8
BLACK
6
CONTINUOUS
10
126.137
20
-136.042
11
125.556
21
-135.405
0
LINE
8
BLACK
6
CONTINUOUS
10
125.556
20
-135.405
11
125.102
21
-134.671
0
LINE
8
BLACK
6
CONTINUOUS
10
125.102
20
-134.671
11
124.79
21
-133.867
0
LINE
8
BLACK
6
CONTINUOUS
10
124.79
20
-133.867
11
124.632
21
-133.019
0
LINE
8
BLACK
6
CONTINUOUS
10
124.632
20
-133.019
11
124.632
21
-132.157
0
LINE
8
BLACK
6
CONTINUOUS
10
124.632
20
-132.157
11
124.79
21
-131.309
0
LINE
8
BLACK
6
CONTINUOUS
10
124.954
20
-133.821
11
125.254
21
-134.596
0
LINE
8
BLACK
6
CONTINUOUS
10
125.254
20
-134.596
11
125.692
21
-135.302
0
LINE
8
BLACK
6
CONTINUOUS
10
125.692
20
-135.302
11
126.252
21
-135.917
0
LINE
8
BLACK
6
CONTINUOUS
10
126.252
20
-135.917
11
126.915
21
-136.417
0
LINE
8
BLACK
6
CONTINUOUS
10
126.915
20
-136.417
11
127.659
21
-136.788
0
LINE
8
BLACK
6
CONTINUOUS
10
127.659
20
-136.788
11
128.458
21
-137.015
0
LINE
8
BLACK
6
CONTINUOUS
10
128.458
20
-137.015
11
129.286
21
-137.092
0
LINE
8
BLACK
6
CONTINUOUS
10
129.286
20
-137.092
11
130.114
21
-137.015
0
LINE
8
BLACK
6
CONTINUOUS
10
130.114
20
-137.015
11
130.913
21
-136.788
0
LINE
8
BLACK
6
CONTINUOUS
10
130.913
20
-136.788
11
131.657
21
-136.417
0
LINE
8
BLACK
6
CONTINUOUS
10
131.657
20
-136.417
11
132.32
21
-135.917
0
LINE
8
BLACK
6
CONTINUOUS
10
132.32
20
-135.917
11
132.88
21
-135.302
0
LINE
8
BLACK
6
CONTINUOUS
10
132.88
20
-135.302
11
133.318
21
-134.596
0
LINE
8
BLACK
6
CONTINUOUS
10
133.318
20
-134.596
11
133.618
21
-133.821
0
LINE
8
BLACK
6
CONTINUOUS
10
133.618
20
-133.821
11
133.771
21
-133.004
0
LINE
8
BLACK
6
CONTINUOUS
10
133.771
20
-133.004
11
133.771
21
-132.172
0
LINE
8
BLACK
6
CONTINUOUS
10
133.771
20
-132.172
11
133.618
21
-131.355
0
LINE
8
BLACK
6
CONTINUOUS
10
133.618
20
-131.355
11
133.318
21
-130.58
0
LINE
8
BLACK
6
CONTINUOUS
10
133.318
20
-130.58
11
132.88
21
-129.874
0
LINE
8
BLACK
6
CONTINUOUS
10
132.88
20
-129.874
11
132.32
21
-129.259
0
LINE
8
BLACK
6
CONTINUOUS
10
132.32
20
-129.259
11
131.657
21
-128.759
0
LINE
8
BLACK
6
CONTINUOUS
10
131.657
20
-128.759
11
130.913
21
-128.388
0
LINE
8
BLACK
6
CONTINUOUS
10
130.913
20
-128.388
11
130.114
21
-128.161
0
LINE
8
BLACK
6
CONTINUOUS
10
130.114
20
-128.161
11
129.286
21
-128.084
0
LINE
8
BLACK
6
CONTINUOUS
10
129.286
20
-128.084
11
128.458
21
-128.161
0
LINE
8
BLACK
6
CONTINUOUS
10
128.458
20
-128.161
11
127.659
21
-128.388
0
LINE
8
BLACK
6
CONTINUOUS
10
127.659
20
-128.388
11
126.915
21
-128.759
0
LINE
8
BLACK
6
CONTINUOUS
10
126.915
20
-128.759
11
126.252
21
-129.259
0
LINE
8
BLACK
6
CONTINUOUS
10
126.252
20
-129.259
11
125.692
21
-129.874
0
LINE
8
BLACK
6
CONTINUOUS
10
125.692
20
-129.874
11
125.254
21
-130.58
0
LINE
8
BLACK
6
CONTINUOUS
10
125.254
20
-130.58
11
124.954
21
-131.355
0
LINE
8
BLACK
6
CONTINUOUS
10
124.954
20
-131.355
11
124.801
21
-132.172
0
LINE
8
BLACK
6
CONTINUOUS
10
124.801
20
-132.172
11
124.801
21
-133.004
0
LINE
8
BLACK
6
CONTINUOUS
10
124.801
20
-133.004
11
124.954
21
-133.821
0
LINE
8
BLACK
6
CONTINUOUS
10
165.916
20
-131.303
11
166.23
21
-130.494
0
LINE
8
BLACK
6
CONTINUOUS
10
166.23
20
-130.494
11
166.686
21
-129.757
0
LINE
8
BLACK
6
CONTINUOUS
10
166.686
20
-129.757
11
167.27
21
-129.117
0
LINE
8
BLACK
6
CONTINUOUS
10
167.27
20
-129.117
11
167.961
21
-128.595
0
LINE
8
BLACK
6
CONTINUOUS
10
167.961
20
-128.595
11
168.737
21
-128.208
0
LINE
8
BLACK
6
CONTINUOUS
10
168.737
20
-128.208
11
169.571
21
-127.971
0
LINE
8
BLACK
6
CONTINUOUS
10
169.571
20
-127.971
11
170.434
21
-127.891
0
LINE
8
BLACK
6
CONTINUOUS
10
170.434
20
-127.891
11
171.297
21
-127.971
0
LINE
8
BLACK
6
CONTINUOUS
10
171.297
20
-127.971
11
172.131
21
-128.208
0
LINE
8
BLACK
6
CONTINUOUS
10
172.131
20
-128.208
11
172.907
21
-128.595
0
LINE
8
BLACK
6
CONTINUOUS
10
172.907
20
-128.595
11
173.598
21
-129.117
0
LINE
8
BLACK
6
CONTINUOUS
10
173.598
20
-129.117
11
174.182
21
-129.757
0
LINE
8
BLACK
6
CONTINUOUS
10
174.182
20
-129.757
11
174.638
21
-130.494
0
LINE
8
BLACK
6
CONTINUOUS
10
174.638
20
-130.494
11
174.952
21
-131.303
0
LINE
8
BLACK
6
CONTINUOUS
10
174.952
20
-131.303
11
175.111
21
-132.155
0
LINE
8
BLACK
6
CONTINUOUS
10
175.111
20
-132.155
11
175.111
21
-133.021
0
LINE
8
BLACK
6
CONTINUOUS
10
175.111
20
-133.021
11
174.952
21
-133.873
0
LINE
8
BLACK
6
CONTINUOUS
10
174.952
20
-133.873
11
174.638
21
-134.682
0
LINE
8
BLACK
6
CONTINUOUS
10
174.638
20
-134.682
11
174.182
21
-135.419
0
LINE
8
BLACK
6
CONTINUOUS
10
174.182
20
-135.419
11
173.598
21
-136.059
0
LINE
8
BLACK
6
CONTINUOUS
10
173.598
20
-136.059
11
172.907
21
-136.581
0
LINE
8
BLACK
6
CONTINUOUS
10
172.907
20
-136.581
11
172.131
21
-136.968
0
LINE
8
BLACK
6
CONTINUOUS
10
172.131
20
-136.968
11
171.297
21
-137.205
0
LINE
8
BLACK
6
CONTINUOUS
10
171.297
20
-137.205
11
170.434
21
-137.285
0
LINE
8
BLACK
6
CONTINUOUS
10
170.434
20
-137.285
11
169.571
21
-137.205
0
LINE
8
BLACK
6
CONTINUOUS
10
169.571
20
-137.205
11
168.737
21
-136.968
0
LINE
8
BLACK
6
CONTINUOUS
10
168.737
20
-136.968
11
167.961
21
-136.581
0
LINE
8
BLACK
6
CONTINUOUS
10
167.961
20
-136.581
11
167.27
21
-136.059
0
LINE
8
BLACK
6
CONTINUOUS
10
167.27
20
-136.059
11
166.686
21
-135.419
0
LINE
8
BLACK
6
CONTINUOUS
10
166.686
20
-135.419
11
166.23
21
-134.682
0
LINE
8
BLACK
6
CONTINUOUS
10
166.23
20
-134.682
11
165.916
21
-133.873
0
LINE
8
BLACK
6
CONTINUOUS
10
165.916
20
-133.873
11
165.757
21
-133.021
0
LINE
8
BLACK
6
CONTINUOUS
10
165.757
20
-133.021
11
165.757
21
-132.155
0
LINE
8
BLACK
6
CONTINUOUS
10
165.757
20
-132.155
11
165.916
21
-131.303
0
LINE
8
BLACK
6
CONTINUOUS
10
166.08
20
-133.827
11
166.382
21
-134.606
0
LINE
8
BLACK
6
CONTINUOUS
10
166.382
20
-134.606
11
166.821
21
-135.316
0
LINE
8
BLACK
6
CONTINUOUS
10
166.821
20
-135.316
11
167.384
21
-135.933
0
LINE
8
BLACK
6
CONTINUOUS
10
167.384
20
-135.933
11
168.051
21
-136.437
0
LINE
8
BLACK
6
CONTINUOUS
10
168.051
20
-136.437
11
168.799
21
-136.809
0
LINE
8
BLACK
6
CONTINUOUS
10
168.799
20
-136.809
11
169.602
21
-137.038
0
LINE
8
BLACK
6
CONTINUOUS
10
169.602
20
-137.038
11
170.434
21
-137.115
0
LINE
8
BLACK
6
CONTINUOUS
10
170.434
20
-137.115
11
171.266
21
-137.038
0
LINE
8
BLACK
6
CONTINUOUS
10
171.266
20
-137.038
11
172.069
21
-136.809
0
LINE
8
BLACK
6
CONTINUOUS
10
172.069
20
-136.809
11
172.817
21
-136.437
0
LINE
8
BLACK
6
CONTINUOUS
10
172.817
20
-136.437
11
173.484
21
-135.933
0
LINE
8
BLACK
6
CONTINUOUS
10
173.484
20
-135.933
11
174.047
21
-135.316
0
LINE
8
BLACK
6
CONTINUOUS
10
174.047
20
-135.316
11
174.486
21
-134.606
0
LINE
8
BLACK
6
CONTINUOUS
10
174.486
20
-134.606
11
174.788
21
-133.827
0
LINE
8
BLACK
6
CONTINUOUS
10
174.788
20
-133.827
11
174.942
21
-133.006
0
LINE
8
BLACK
6
CONTINUOUS
10
174.942
20
-133.006
11
174.942
21
-132.17
0
LINE
8
BLACK
6
CONTINUOUS
10
174.942
20
-132.17
11
174.788
21
-131.349
0
LINE
8
BLACK
6
CONTINUOUS
10
174.788
20
-131.349
11
174.486
21
-130.57
0
LINE
8
BLACK
6
CONTINUOUS
10
174.486
20
-130.57
11
174.047
21
-129.86
0
LINE
8
BLACK
6
CONTINUOUS
10
174.047
20
-129.86
11
173.484
21
-129.243
0
LINE
8
BLACK
6
CONTINUOUS
10
173.484
20
-129.243
11
172.817
21
-128.739
0
LINE
8
BLACK
6
CONTINUOUS
10
172.817
20
-128.739
11
172.069
21
-128.367
0
LINE
8
BLACK
6
CONTINUOUS
10
172.069
20
-128.367
11
171.266
21
-128.138
0
LINE
8
BLACK
6
CONTINUOUS
10
171.266
20
-128.138
11
170.434
21
-128.061
0
LINE
8
BLACK
6
CONTINUOUS
10
170.434
20
-128.061
11
169.602
21
-128.138
0
LINE
8
BLACK
6
CONTINUOUS
10
169.602
20
-128.138
11
168.799
21
-128.367
0
LINE
8
BLACK
6
CONTINUOUS
10
168.799
20
-128.367
11
168.051
21
-128.739
0
LINE
8
BLACK
6
CONTINUOUS
10
168.051
20
-128.739
11
167.384
21
-129.243
0
LINE
8
BLACK
6
CONTINUOUS
10
167.384
20
-129.243
11
166.821
21
-129.86
0
LINE
8
BLACK
6
CONTINUOUS
10
166.821
20
-129.86
11
166.382
21
-130.57
0
LINE
8
BLACK
6
CONTINUOUS
10
166.382
20
-130.57
11
166.08
21
-131.349
0
LINE
8
BLACK
6
CONTINUOUS
10
166.08
20
-131.349
11
165.926
21
-132.17
0
LINE
8
BLACK
6
CONTINUOUS
10
165.926
20
-132.17
11
165.926
21
-133.006
0
LINE
8
BLACK
6
CONTINUOUS
10
165.926
20
-133.006
11
166.08
21
-133.827
0
LINE
8
BLACK
6
CONTINUOUS
10
229.735
20
-44.3129
11
229.913
21
-43.8843
0
LINE
8
BLACK
6
CONTINUOUS
10
229.913
20
-43.8843
11
230.17
21
-43.4985
0
LINE
8
BLACK
6
CONTINUOUS
10
230.17
20
-43.4985
11
230.498
21
-43.1704
0
LINE
8
BLACK
6
CONTINUOUS
10
230.498
20
-43.1704
11
230.884
21
-42.9126
0
LINE
8
BLACK
6
CONTINUOUS
10
230.884
20
-42.9126
11
231.313
21
-42.7351
0
LINE
8
BLACK
6
CONTINUOUS
10
231.313
20
-42.7351
11
231.768
21
-42.6446
0
LINE
8
BLACK
6
CONTINUOUS
10
231.768
20
-42.6446
11
232.232
21
-42.6446
0
LINE
8
BLACK
6
CONTINUOUS
10
232.232
20
-42.6446
11
232.687
21
-42.7351
0
LINE
8
BLACK
6
CONTINUOUS
10
232.687
20
-42.7351
11
233.116
21
-42.9126
0
LINE
8
BLACK
6
CONTINUOUS
10
233.116
20
-42.9126
11
233.502
21
-43.1704
0
LINE
8
BLACK
6
CONTINUOUS
10
233.502
20
-43.1704
11
233.83
21
-43.4985
0
LINE
8
BLACK
6
CONTINUOUS
10
233.83
20
-43.4985
11
234.087
21
-43.8843
0
LINE
8
BLACK
6
CONTINUOUS
10
234.087
20
-43.8843
11
234.265
21
-44.3129
0
LINE
8
BLACK
6
CONTINUOUS
10
234.265
20
-44.3129
11
234.355
21
-44.768
0
LINE
8
BLACK
6
CONTINUOUS
10
234.355
20
-44.768
11
234.355
21
-45.232
0
LINE
8
BLACK
6
CONTINUOUS
10
234.355
20
-45.232
11
234.265
21
-45.6871
0
LINE
8
BLACK
6
CONTINUOUS
10
234.265
20
-45.6871
11
234.087
21
-46.1157
0
LINE
8
BLACK
6
CONTINUOUS
10
234.087
20
-46.1157
11
233.83
21
-46.5015
0
LINE
8
BLACK
6
CONTINUOUS
10
233.83
20
-46.5015
11
233.502
21
-46.8296
0
LINE
8
BLACK
6
CONTINUOUS
10
233.502
20
-46.8296
11
233.116
21
-47.0874
0
LINE
8
BLACK
6
CONTINUOUS
10
233.116
20
-47.0874
11
232.687
21
-47.2649
0
LINE
8
BLACK
6
CONTINUOUS
10
232.687
20
-47.2649
11
232.232
21
-47.3554
0
LINE
8
BLACK
6
CONTINUOUS
10
232.232
20
-47.3554
11
231.768
21
-47.3554
0
LINE
8
BLACK
6
CONTINUOUS
10
231.768
20
-47.3554
11
231.313
21
-47.2649
0
LINE
8
BLACK
6
CONTINUOUS
10
231.313
20
-47.2649
11
230.884
21
-47.0874
0
LINE
8
BLACK
6
CONTINUOUS
10
230.884
20
-47.0874
11
230.498
21
-46.8296
0
LINE
8
BLACK
6
CONTINUOUS
10
230.498
20
-46.8296
11
230.17
21
-46.5015
0
LINE
8
BLACK
6
CONTINUOUS
10
230.17
20
-46.5015
11
229.913
21
-46.1157
0
LINE
8
BLACK
6
CONTINUOUS
10
229.913
20
-46.1157
11
229.735
21
-45.6871
0
LINE
8
BLACK
6
CONTINUOUS
10
229.735
20
-45.6871
11
229.645
21
-45.232
0
LINE
8
BLACK
6
CONTINUOUS
10
229.645
20
-45.232
11
229.645
21
-44.768
0
LINE
8
BLACK
6
CONTINUOUS
10
229.645
20
-44.768
11
229.735
21
-44.3129
0
LINE
8
BLACK
6
CONTINUOUS
10
229.898
20
-45.6377
11
230.063
21
-46.0356
0
LINE
8
BLACK
6
CONTINUOUS
10
230.063
20
-46.0356
11
230.302
21
-46.3937
0
LINE
8
BLACK
6
CONTINUOUS
10
230.302
20
-46.3937
11
230.606
21
-46.6982
0
LINE
8
BLACK
6
CONTINUOUS
10
230.606
20
-46.6982
11
230.964
21
-46.9374
0
LINE
8
BLACK
6
CONTINUOUS
10
230.964
20
-46.9374
11
231.362
21
-47.1022
0
LINE
8
BLACK
6
CONTINUOUS
10
231.362
20
-47.1022
11
231.785
21
-47.1863
0
LINE
8
BLACK
6
CONTINUOUS
10
231.785
20
-47.1863
11
232.215
21
-47.1863
0
LINE
8
BLACK
6
CONTINUOUS
10
232.215
20
-47.1863
11
232.638
21
-47.1022
0
LINE
8
BLACK
6
CONTINUOUS
10
232.638
20
-47.1022
11
233.036
21
-46.9374
0
LINE
8
BLACK
6
CONTINUOUS
10
233.036
20
-46.9374
11
233.394
21
-46.6982
0
LINE
8
BLACK
6
CONTINUOUS
10
233.394
20
-46.6982
11
233.698
21
-46.3937
0
LINE
8
BLACK
6
CONTINUOUS
10
233.698
20
-46.3937
11
233.937
21
-46.0356
0
LINE
8
BLACK
6
CONTINUOUS
10
233.937
20
-46.0356
11
234.102
21
-45.6377
0
LINE
8
BLACK
6
CONTINUOUS
10
234.102
20
-45.6377
11
234.186
21
-45.2153
0
LINE
8
BLACK
6
CONTINUOUS
10
234.186
20
-45.2153
11
234.186
21
-44.7847
0
LINE
8
BLACK
6
CONTINUOUS
10
234.186
20
-44.7847
11
234.102
21
-44.3623
0
LINE
8
BLACK
6
CONTINUOUS
10
234.102
20
-44.3623
11
233.937
21
-43.9644
0
LINE
8
BLACK
6
CONTINUOUS
10
233.937
20
-43.9644
11
233.698
21
-43.6063
0
LINE
8
BLACK
6
CONTINUOUS
10
233.698
20
-43.6063
11
233.394
21
-43.3018
0
LINE
8
BLACK
6
CONTINUOUS
10
233.394
20
-43.3018
11
233.036
21
-43.0626
0
LINE
8
BLACK
6
CONTINUOUS
10
233.036
20
-43.0626
11
232.638
21
-42.8977
0
LINE
8
BLACK
6
CONTINUOUS
10
232.638
20
-42.8977
11
232.215
21
-42.8137
0
LINE
8
BLACK
6
CONTINUOUS
10
232.215
20
-42.8137
11
231.785
21
-42.8137
0
LINE
8
BLACK
6
CONTINUOUS
10
231.785
20
-42.8137
11
231.362
21
-42.8977
0
LINE
8
BLACK
6
CONTINUOUS
10
231.362
20
-42.8977
11
230.964
21
-43.0626
0
LINE
8
BLACK
6
CONTINUOUS
10
230.964
20
-43.0626
11
230.606
21
-43.3018
0
LINE
8
BLACK
6
CONTINUOUS
10
230.606
20
-43.3018
11
230.302
21
-43.6063
0
LINE
8
BLACK
6
CONTINUOUS
10
230.302
20
-43.6063
11
230.063
21
-43.9644
0
LINE
8
BLACK
6
CONTINUOUS
10
230.063
20
-43.9644
11
229.898
21
-44.3623
0
LINE
8
BLACK
6
CONTINUOUS
10
229.898
20
-44.3623
11
229.814
21
-44.7847
0
LINE
8
BLACK
6
CONTINUOUS
10
229.814
20
-44.7847
11
229.814
21
-45.2153
0
LINE
8
BLACK
6
CONTINUOUS
10
229.814
20
-45.2153
11
229.898
21
-45.6377
0
LINE
8
BLACK
6
CONTINUOUS
10
85.7351
20
-44.3129
11
85.9126
21
-43.8843
0
LINE
8
BLACK
6
CONTINUOUS
10
85.9126
20
-43.8843
11
86.1704
21
-43.4985
0
LINE
8
BLACK
6
CONTINUOUS
10
86.1704
20
-43.4985
11
86.4985
21
-43.1704
0
LINE
8
BLACK
6
CONTINUOUS
10
86.4985
20
-43.1704
11
86.8843
21
-42.9126
0
LINE
8
BLACK
6
CONTINUOUS
10
86.8843
20
-42.9126
11
87.3129
21
-42.7351
0
LINE
8
BLACK
6
CONTINUOUS
10
87.3129
20
-42.7351
11
87.768
21
-42.6446
0
LINE
8
BLACK
6
CONTINUOUS
10
87.768
20
-42.6446
11
88.232
21
-42.6446
0
LINE
8
BLACK
6
CONTINUOUS
10
88.232
20
-42.6446
11
88.6871
21
-42.7351
0
LINE
8
BLACK
6
CONTINUOUS
10
88.6871
20
-42.7351
11
89.1157
21
-42.9126
0
LINE
8
BLACK
6
CONTINUOUS
10
89.1157
20
-42.9126
11
89.5015
21
-43.1704
0
LINE
8
BLACK
6
CONTINUOUS
10
89.5015
20
-43.1704
11
89.8296
21
-43.4985
0
LINE
8
BLACK
6
CONTINUOUS
10
89.8296
20
-43.4985
11
90.0874
21
-43.8843
0
LINE
8
BLACK
6
CONTINUOUS
10
90.0874
20
-43.8843
11
90.2649
21
-44.3129
0
LINE
8
BLACK
6
CONTINUOUS
10
90.2649
20
-44.3129
11
90.3554
21
-44.768
0
LINE
8
BLACK
6
CONTINUOUS
10
90.3554
20
-44.768
11
90.3554
21
-45.232
0
LINE
8
BLACK
6
CONTINUOUS
10
90.3554
20
-45.232
11
90.2649
21
-45.6871
0
LINE
8
BLACK
6
CONTINUOUS
10
90.2649
20
-45.6871
11
90.0874
21
-46.1157
0
LINE
8
BLACK
6
CONTINUOUS
10
90.0874
20
-46.1157
11
89.8296
21
-46.5015
0
LINE
8
BLACK
6
CONTINUOUS
10
89.8296
20
-46.5015
11
89.5015
21
-46.8296
0
LINE
8
BLACK
6
CONTINUOUS
10
89.5015
20
-46.8296
11
89.1157
21
-47.0874
0
LINE
8
BLACK
6
CONTINUOUS
10
89.1157
20
-47.0874
11
88.6871
21
-47.2649
0
LINE
8
BLACK
6
CONTINUOUS
10
88.6871
20
-47.2649
11
88.232
21
-47.3554
0
LINE
8
BLACK
6
CONTINUOUS
10
88.232
20
-47.3554
11
87.768
21
-47.3554
0
LINE
8
BLACK
6
CONTINUOUS
10
87.768
20
-47.3554
11
87.3129
21
-47.2649
0
LINE
8
BLACK
6
CONTINUOUS
10
87.3129
20
-47.2649
11
86.8843
21
-47.0874
0
LINE
8
BLACK
6
CONTINUOUS
10
86.8843
20
-47.0874
11
86.4985
21
-46.8296
0
LINE
8
BLACK
6
CONTINUOUS
10
86.4985
20
-46.8296
11
86.1704
21
-46.5015
0
LINE
8
BLACK
6
CONTINUOUS
10
86.1704
20
-46.5015
11
85.9126
21
-46.1157
0
LINE
8
BLACK
6
CONTINUOUS
10
85.9126
20
-46.1157
11
85.7351
21
-45.6871
0
LINE
8
BLACK
6
CONTINUOUS
10
85.7351
20
-45.6871
11
85.6446
21
-45.232
0
LINE
8
BLACK
6
CONTINUOUS
10
85.6446
20
-45.232
11
85.6446
21
-44.768
0
LINE
8
BLACK
6
CONTINUOUS
10
85.6446
20
-44.768
11
85.7351
21
-44.3129
0
LINE
8
BLACK
6
CONTINUOUS
10
85.8978
20
-45.6377
11
86.0626
21
-46.0356
0
LINE
8
BLACK
6
CONTINUOUS
10
86.0626
20
-46.0356
11
86.3018
21
-46.3937
0
LINE
8
BLACK
6
CONTINUOUS
10
86.3018
20
-46.3937
11
86.6063
21
-46.6982
0
LINE
8
BLACK
6
CONTINUOUS
10
86.6063
20
-46.6982
11
86.9644
21
-46.9374
0
LINE
8
BLACK
6
CONTINUOUS
10
86.9644
20
-46.9374
11
87.3623
21
-47.1022
0
LINE
8
BLACK
6
CONTINUOUS
10
87.3623
20
-47.1022
11
87.7847
21
-47.1863
0
LINE
8
BLACK
6
CONTINUOUS
10
87.7847
20
-47.1863
11
88.2153
21
-47.1863
0
LINE
8
BLACK
6
CONTINUOUS
10
88.2153
20
-47.1863
11
88.6377
21
-47.1022
0
LINE
8
BLACK
6
CONTINUOUS
10
88.6377
20
-47.1022
11
89.0356
21
-46.9374
0
LINE
8
BLACK
6
CONTINUOUS
10
89.0356
20
-46.9374
11
89.3937
21
-46.6982
0
LINE
8
BLACK
6
CONTINUOUS
10
89.3937
20
-46.6982
11
89.6982
21
-46.3937
0
LINE
8
BLACK
6
CONTINUOUS
10
89.6982
20
-46.3937
11
89.9374
21
-46.0356
0
LINE
8
BLACK
6
CONTINUOUS
10
89.9374
20
-46.0356
11
90.1022
21
-45.6377
0
LINE
8
BLACK
6
CONTINUOUS
10
90.1022
20
-45.6377
11
90.1863
21
-45.2153
0
LINE
8
BLACK
6
CONTINUOUS
10
90.1863
20
-45.2153
11
90.1863
21
-44.7847
0
LINE
8
BLACK
6
CONTINUOUS
10
90.1863
20
-44.7847
11
90.1022
21
-44.3623
0
LINE
8
BLACK
6
CONTINUOUS
10
90.1022
20
-44.3623
11
89.9374
21
-43.9644
0
LINE
8
BLACK
6
CONTINUOUS
10
89.9374
20
-43.9644
11
89.6982
21
-43.6063
0
LINE
8
BLACK
6
CONTINUOUS
10
89.6982
20
-43.6063
11
89.3937
21
-43.3018
0
LINE
8
BLACK
6
CONTINUOUS
10
89.3937
20
-43.3018
11
89.0356
21
-43.0626
0
LINE
8
BLACK
6
CONTINUOUS
10
89.0356
20
-43.0626
11
88.6377
21
-42.8977
0
LINE
8
BLACK
6
CONTINUOUS
10
88.6377
20
-42.8977
11
88.2153
21
-42.8137
0
LINE
8
BLACK
6
CONTINUOUS
10
88.2153
20
-42.8137
11
87.7847
21
-42.8137
0
LINE
8
BLACK
6
CONTINUOUS
10
87.7847
20
-42.8137
11
87.3623
21
-42.8977
0
LINE
8
BLACK
6
CONTINUOUS
10
87.3623
20
-42.8977
11
86.9644
21
-43.0626
0
LINE
8
BLACK
6
CONTINUOUS
10
86.9644
20
-43.0626
11
86.6063
21
-43.3018
0
LINE
8
BLACK
6
CONTINUOUS
10
86.6063
20
-43.3018
11
86.3018
21
-43.6063
0
LINE
8
BLACK
6
CONTINUOUS
10
86.3018
20
-43.6063
11
86.0626
21
-43.9644
0
LINE
8
BLACK
6
CONTINUOUS
10
86.0626
20
-43.9644
11
85.8978
21
-44.3623
0
LINE
8
BLACK
6
CONTINUOUS
10
85.8978
20
-44.3623
11
85.8137
21
-44.7847
0
LINE
8
BLACK
6
CONTINUOUS
10
85.8137
20
-44.7847
11
85.8137
21
-45.2153
0
LINE
8
BLACK
6
CONTINUOUS
10
85.8137
20
-45.2153
11
85.8978
21
-45.6377
  0
ENDSEC
  0
EOF
