  0
SECTION
  2
HEADER
  9
$ANGBASE
  50
0.0
  9
$ANGDIR
  70
1
  9
$MEASUREMENT
  70
1
  0
ENDSEC
  0
SECTION
  2
TABLES
  0
TABLE
  2
LTYPE
  70
4
  0
LTYPE
  5
40F
  2
CONTINUOUS
  70
0
  3
Solid line
  72
65
  73
0
  40
0.0
  0
LTYPE
  5
410
  2
DASHDOT
 70
0
  3
Dash Dot ____ _ ____ _
 72
65
 73
4
 40
2.0
 49
1.25
 49
-0.25
 49
0.25
 49
-0.25
  0
LTYPE
  5
411
  2
DASHED
 70
0
  3
Dashed __ __ __ __ __
 72
65
 73
2
 40
0.75
 49
0.5
 49
-0.25
  0
LTYPE
  5
43B
  2
DOTTED
 70
0
  3
Dotted .  .  .  .
 72
65
 73
2
 40
0.2
 49
0.0
 49
-0.2
  0
ENDTAB
  0
TABLE
  2
STYLE
  70
4
  0
STYLE
  2
KICAD
  70
0
  40
0
  41
1
  42
1
  50
0
  71
0
  3
isocp.shx
  0
STYLE
  2
KICADB
  70
0
  40
0
  41
1
  42
1
  50
0
  71
0
  3
isocp.shx
  0
STYLE
  2
KICADI
  70
0
  40
0
  41
1
  42
1
  50
15
  71
0
  3
isocp.shx
  0
STYLE
  2
KICADBI
  70
0
  40
0
  41
1
  42
1
  50
15
  71
0
  3
isocp.shx
  0
ENDTAB
  0
TABLE
  2
LAYER
  70
1
  0
LAYER
  2
BLACK
  70
0
  62
7
  6
CONTINUOUS
  0
ENDTAB
  0
ENDSEC
  0
SECTION
  2
ENTITIES
0
LINE
8
BLACK
6
CONTINUOUS
10
230.668
20
-36.348
11
230.676
21
-36.3487
0
LINE
8
BLACK
6
CONTINUOUS
10
230.676
20
-36.3487
11
230.685
21
-36.3516
0
LINE
8
BLACK
6
CONTINUOUS
10
230.685
20
-36.3516
11
230.694
21
-36.3562
0
LINE
8
BLACK
6
CONTINUOUS
10
230.694
20
-36.3562
11
230.702
21
-36.3625
0
LINE
8
BLACK
6
CONTINUOUS
10
230.702
20
-36.3625
11
230.708
21
-36.3701
0
LINE
8
BLACK
6
CONTINUOUS
10
230.708
20
-36.3701
11
230.712
21
-36.3788
0
LINE
8
BLACK
6
CONTINUOUS
10
230.712
20
-36.3788
11
230.715
21
-36.3882
0
LINE
8
BLACK
6
CONTINUOUS
10
230.715
20
-36.3882
11
230.716
21
-36.398
0
LINE
8
BLACK
6
CONTINUOUS
10
230.716
20
-36.398
11
230.716
21
-36.4004
0
LINE
8
BLACK
6
CONTINUOUS
10
230.716
20
-36.4004
11
230.716
21
-147.666
0
LINE
8
BLACK
6
CONTINUOUS
10
230.716
20
-147.666
11
230.716
21
-147.668
0
LINE
8
BLACK
6
CONTINUOUS
10
230.716
20
-147.668
11
230.715
21
-147.678
0
LINE
8
BLACK
6
CONTINUOUS
10
230.715
20
-147.678
11
230.712
21
-147.687
0
LINE
8
BLACK
6
CONTINUOUS
10
230.712
20
-147.687
11
230.708
21
-147.696
0
LINE
8
BLACK
6
CONTINUOUS
10
230.708
20
-147.696
11
230.702
21
-147.704
0
LINE
8
BLACK
6
CONTINUOUS
10
230.702
20
-147.704
11
230.694
21
-147.71
0
LINE
8
BLACK
6
CONTINUOUS
10
230.694
20
-147.71
11
230.685
21
-147.714
0
LINE
8
BLACK
6
CONTINUOUS
10
230.685
20
-147.714
11
230.676
21
-147.717
0
LINE
8
BLACK
6
CONTINUOUS
10
230.676
20
-147.717
11
230.668
21
-147.718
0
LINE
8
BLACK
6
CONTINUOUS
10
230.668
20
-147.718
11
230.666
21
-147.718
0
LINE
8
BLACK
6
CONTINUOUS
10
230.666
20
-147.718
11
230.664
21
-147.718
0
LINE
8
BLACK
6
CONTINUOUS
10
230.664
20
-147.718
11
124.966
21
-147.718
0
LINE
8
BLACK
6
CONTINUOUS
10
124.966
20
-147.718
11
124.964
21
-147.718
0
LINE
8
BLACK
6
CONTINUOUS
10
124.964
20
-147.718
11
124.962
21
-147.718
0
LINE
8
BLACK
6
CONTINUOUS
10
124.962
20
-147.718
11
124.954
21
-147.717
0
LINE
8
BLACK
6
CONTINUOUS
10
124.954
20
-147.717
11
124.945
21
-147.714
0
LINE
8
BLACK
6
CONTINUOUS
10
124.945
20
-147.714
11
124.936
21
-147.71
0
LINE
8
BLACK
6
CONTINUOUS
10
124.936
20
-147.71
11
124.928
21
-147.704
0
LINE
8
BLACK
6
CONTINUOUS
10
124.928
20
-147.704
11
124.922
21
-147.696
0
LINE
8
BLACK
6
CONTINUOUS
10
124.922
20
-147.696
11
124.918
21
-147.687
0
LINE
8
BLACK
6
CONTINUOUS
10
124.918
20
-147.687
11
124.915
21
-147.678
0
LINE
8
BLACK
6
CONTINUOUS
10
124.915
20
-147.678
11
124.914
21
-147.668
0
LINE
8
BLACK
6
CONTINUOUS
10
124.914
20
-147.668
11
124.914
21
-147.666
0
LINE
8
BLACK
6
CONTINUOUS
10
124.914
20
-147.666
11
124.914
21
-36.4004
0
LINE
8
BLACK
6
CONTINUOUS
10
124.914
20
-36.4004
11
124.914
21
-36.398
0
LINE
8
BLACK
6
CONTINUOUS
10
124.914
20
-36.398
11
124.915
21
-36.3882
0
LINE
8
BLACK
6
CONTINUOUS
10
124.915
20
-36.3882
11
124.918
21
-36.3788
0
LINE
8
BLACK
6
CONTINUOUS
10
124.918
20
-36.3788
11
124.922
21
-36.3701
0
LINE
8
BLACK
6
CONTINUOUS
10
124.922
20
-36.3701
11
124.928
21
-36.3625
0
LINE
8
BLACK
6
CONTINUOUS
10
124.928
20
-36.3625
11
124.936
21
-36.3562
0
LINE
8
BLACK
6
CONTINUOUS
10
124.936
20
-36.3562
11
124.945
21
-36.3516
0
LINE
8
BLACK
6
CONTINUOUS
10
124.945
20
-36.3516
11
124.954
21
-36.3487
0
LINE
8
BLACK
6
CONTINUOUS
10
124.954
20
-36.3487
11
124.962
21
-36.348
0
LINE
8
BLACK
6
CONTINUOUS
10
124.962
20
-36.348
11
124.964
21
-36.3478
0
LINE
8
BLACK
6
CONTINUOUS
10
124.964
20
-36.3478
11
124.966
21
-36.348
0
LINE
8
BLACK
6
CONTINUOUS
10
124.966
20
-36.348
11
230.664
21
-36.348
0
LINE
8
BLACK
6
CONTINUOUS
10
230.664
20
-36.348
11
230.666
21
-36.3478
0
LINE
8
BLACK
6
CONTINUOUS
10
230.666
20
-36.3478
11
230.668
21
-36.348
0
LINE
8
BLACK
6
CONTINUOUS
10
125.014
20
-36.448
11
125.014
21
-147.618
0
LINE
8
BLACK
6
CONTINUOUS
10
125.014
20
-147.618
11
230.616
21
-147.618
0
LINE
8
BLACK
6
CONTINUOUS
10
230.616
20
-147.618
11
230.616
21
-36.448
0
LINE
8
BLACK
6
CONTINUOUS
10
230.616
20
-36.448
11
125.014
21
-36.448
0
LINE
8
BLACK
6
CONTINUOUS
10
224.006
20
-142.829
11
224.182
21
-142.405
0
LINE
8
BLACK
6
CONTINUOUS
10
224.182
20
-142.405
11
224.437
21
-142.022
0
LINE
8
BLACK
6
CONTINUOUS
10
224.437
20
-142.022
11
224.762
21
-141.697
0
LINE
8
BLACK
6
CONTINUOUS
10
224.762
20
-141.697
11
225.145
21
-141.442
0
LINE
8
BLACK
6
CONTINUOUS
10
225.145
20
-141.442
11
225.569
21
-141.266
0
LINE
8
BLACK
6
CONTINUOUS
10
225.569
20
-141.266
11
226.02
21
-141.176
0
LINE
8
BLACK
6
CONTINUOUS
10
226.02
20
-141.176
11
226.48
21
-141.176
0
LINE
8
BLACK
6
CONTINUOUS
10
226.48
20
-141.176
11
226.931
21
-141.266
0
LINE
8
BLACK
6
CONTINUOUS
10
226.931
20
-141.266
11
227.355
21
-141.442
0
LINE
8
BLACK
6
CONTINUOUS
10
227.355
20
-141.442
11
227.738
21
-141.697
0
LINE
8
BLACK
6
CONTINUOUS
10
227.738
20
-141.697
11
228.063
21
-142.022
0
LINE
8
BLACK
6
CONTINUOUS
10
228.063
20
-142.022
11
228.318
21
-142.405
0
LINE
8
BLACK
6
CONTINUOUS
10
228.318
20
-142.405
11
228.494
21
-142.829
0
LINE
8
BLACK
6
CONTINUOUS
10
228.494
20
-142.829
11
228.584
21
-143.28
0
LINE
8
BLACK
6
CONTINUOUS
10
228.584
20
-143.28
11
228.584
21
-143.74
0
LINE
8
BLACK
6
CONTINUOUS
10
228.584
20
-143.74
11
228.494
21
-144.191
0
LINE
8
BLACK
6
CONTINUOUS
10
228.494
20
-144.191
11
228.318
21
-144.615
0
LINE
8
BLACK
6
CONTINUOUS
10
228.318
20
-144.615
11
228.063
21
-144.998
0
LINE
8
BLACK
6
CONTINUOUS
10
228.063
20
-144.998
11
227.738
21
-145.323
0
LINE
8
BLACK
6
CONTINUOUS
10
227.738
20
-145.323
11
227.355
21
-145.578
0
LINE
8
BLACK
6
CONTINUOUS
10
227.355
20
-145.578
11
226.931
21
-145.754
0
LINE
8
BLACK
6
CONTINUOUS
10
226.931
20
-145.754
11
226.48
21
-145.844
0
LINE
8
BLACK
6
CONTINUOUS
10
226.48
20
-145.844
11
226.02
21
-145.844
0
LINE
8
BLACK
6
CONTINUOUS
10
226.02
20
-145.844
11
225.569
21
-145.754
0
LINE
8
BLACK
6
CONTINUOUS
10
225.569
20
-145.754
11
225.145
21
-145.578
0
LINE
8
BLACK
6
CONTINUOUS
10
225.145
20
-145.578
11
224.762
21
-145.323
0
LINE
8
BLACK
6
CONTINUOUS
10
224.762
20
-145.323
11
224.437
21
-144.998
0
LINE
8
BLACK
6
CONTINUOUS
10
224.437
20
-144.998
11
224.182
21
-144.615
0
LINE
8
BLACK
6
CONTINUOUS
10
224.182
20
-144.615
11
224.006
21
-144.191
0
LINE
8
BLACK
6
CONTINUOUS
10
224.006
20
-144.191
11
223.916
21
-143.74
0
LINE
8
BLACK
6
CONTINUOUS
10
223.916
20
-143.74
11
223.916
21
-143.28
0
LINE
8
BLACK
6
CONTINUOUS
10
223.916
20
-143.28
11
224.006
21
-142.829
0
LINE
8
BLACK
6
CONTINUOUS
10
224.073
20
-144.17
11
224.244
21
-144.582
0
LINE
8
BLACK
6
CONTINUOUS
10
224.244
20
-144.582
11
224.491
21
-144.953
0
LINE
8
BLACK
6
CONTINUOUS
10
224.491
20
-144.953
11
224.807
21
-145.269
0
LINE
8
BLACK
6
CONTINUOUS
10
224.807
20
-145.269
11
225.178
21
-145.516
0
LINE
8
BLACK
6
CONTINUOUS
10
225.178
20
-145.516
11
225.59
21
-145.687
0
LINE
8
BLACK
6
CONTINUOUS
10
225.59
20
-145.687
11
226.027
21
-145.774
0
LINE
8
BLACK
6
CONTINUOUS
10
226.027
20
-145.774
11
226.473
21
-145.774
0
LINE
8
BLACK
6
CONTINUOUS
10
226.473
20
-145.774
11
226.91
21
-145.687
0
LINE
8
BLACK
6
CONTINUOUS
10
226.91
20
-145.687
11
227.322
21
-145.516
0
LINE
8
BLACK
6
CONTINUOUS
10
227.322
20
-145.516
11
227.693
21
-145.269
0
LINE
8
BLACK
6
CONTINUOUS
10
227.693
20
-145.269
11
228.009
21
-144.953
0
LINE
8
BLACK
6
CONTINUOUS
10
228.009
20
-144.953
11
228.256
21
-144.582
0
LINE
8
BLACK
6
CONTINUOUS
10
228.256
20
-144.582
11
228.427
21
-144.17
0
LINE
8
BLACK
6
CONTINUOUS
10
228.427
20
-144.17
11
228.514
21
-143.733
0
LINE
8
BLACK
6
CONTINUOUS
10
228.514
20
-143.733
11
228.514
21
-143.287
0
LINE
8
BLACK
6
CONTINUOUS
10
228.514
20
-143.287
11
228.427
21
-142.85
0
LINE
8
BLACK
6
CONTINUOUS
10
228.427
20
-142.85
11
228.256
21
-142.438
0
LINE
8
BLACK
6
CONTINUOUS
10
228.256
20
-142.438
11
228.009
21
-142.067
0
LINE
8
BLACK
6
CONTINUOUS
10
228.009
20
-142.067
11
227.693
21
-141.751
0
LINE
8
BLACK
6
CONTINUOUS
10
227.693
20
-141.751
11
227.322
21
-141.504
0
LINE
8
BLACK
6
CONTINUOUS
10
227.322
20
-141.504
11
226.91
21
-141.333
0
LINE
8
BLACK
6
CONTINUOUS
10
226.91
20
-141.333
11
226.473
21
-141.246
0
LINE
8
BLACK
6
CONTINUOUS
10
226.473
20
-141.246
11
226.027
21
-141.246
0
LINE
8
BLACK
6
CONTINUOUS
10
226.027
20
-141.246
11
225.59
21
-141.333
0
LINE
8
BLACK
6
CONTINUOUS
10
225.59
20
-141.333
11
225.178
21
-141.504
0
LINE
8
BLACK
6
CONTINUOUS
10
225.178
20
-141.504
11
224.807
21
-141.751
0
LINE
8
BLACK
6
CONTINUOUS
10
224.807
20
-141.751
11
224.491
21
-142.067
0
LINE
8
BLACK
6
CONTINUOUS
10
224.491
20
-142.067
11
224.244
21
-142.438
0
LINE
8
BLACK
6
CONTINUOUS
10
224.244
20
-142.438
11
224.073
21
-142.85
0
LINE
8
BLACK
6
CONTINUOUS
10
224.073
20
-142.85
11
223.986
21
-143.287
0
LINE
8
BLACK
6
CONTINUOUS
10
223.986
20
-143.287
11
223.986
21
-143.733
0
LINE
8
BLACK
6
CONTINUOUS
10
223.986
20
-143.733
11
224.073
21
-144.17
0
LINE
8
BLACK
6
CONTINUOUS
10
126.512
20
-142.829
11
126.688
21
-142.405
0
LINE
8
BLACK
6
CONTINUOUS
10
126.688
20
-142.405
11
126.943
21
-142.022
0
LINE
8
BLACK
6
CONTINUOUS
10
126.943
20
-142.022
11
127.268
21
-141.697
0
LINE
8
BLACK
6
CONTINUOUS
10
127.268
20
-141.697
11
127.651
21
-141.442
0
LINE
8
BLACK
6
CONTINUOUS
10
127.651
20
-141.442
11
128.075
21
-141.266
0
LINE
8
BLACK
6
CONTINUOUS
10
128.075
20
-141.266
11
128.526
21
-141.176
0
LINE
8
BLACK
6
CONTINUOUS
10
128.526
20
-141.176
11
128.986
21
-141.176
0
LINE
8
BLACK
6
CONTINUOUS
10
128.986
20
-141.176
11
129.437
21
-141.266
0
LINE
8
BLACK
6
CONTINUOUS
10
129.437
20
-141.266
11
129.861
21
-141.442
0
LINE
8
BLACK
6
CONTINUOUS
10
129.861
20
-141.442
11
130.244
21
-141.697
0
LINE
8
BLACK
6
CONTINUOUS
10
130.244
20
-141.697
11
130.569
21
-142.022
0
LINE
8
BLACK
6
CONTINUOUS
10
130.569
20
-142.022
11
130.824
21
-142.405
0
LINE
8
BLACK
6
CONTINUOUS
10
130.824
20
-142.405
11
131
21
-142.829
0
LINE
8
BLACK
6
CONTINUOUS
10
131
20
-142.829
11
131.09
21
-143.28
0
LINE
8
BLACK
6
CONTINUOUS
10
131.09
20
-143.28
11
131.09
21
-143.74
0
LINE
8
BLACK
6
CONTINUOUS
10
131.09
20
-143.74
11
131
21
-144.191
0
LINE
8
BLACK
6
CONTINUOUS
10
131
20
-144.191
11
130.824
21
-144.615
0
LINE
8
BLACK
6
CONTINUOUS
10
130.824
20
-144.615
11
130.569
21
-144.998
0
LINE
8
BLACK
6
CONTINUOUS
10
130.569
20
-144.998
11
130.244
21
-145.323
0
LINE
8
BLACK
6
CONTINUOUS
10
130.244
20
-145.323
11
129.861
21
-145.578
0
LINE
8
BLACK
6
CONTINUOUS
10
129.861
20
-145.578
11
129.437
21
-145.754
0
LINE
8
BLACK
6
CONTINUOUS
10
129.437
20
-145.754
11
128.986
21
-145.844
0
LINE
8
BLACK
6
CONTINUOUS
10
128.986
20
-145.844
11
128.526
21
-145.844
0
LINE
8
BLACK
6
CONTINUOUS
10
128.526
20
-145.844
11
128.075
21
-145.754
0
LINE
8
BLACK
6
CONTINUOUS
10
128.075
20
-145.754
11
127.651
21
-145.578
0
LINE
8
BLACK
6
CONTINUOUS
10
127.651
20
-145.578
11
127.268
21
-145.323
0
LINE
8
BLACK
6
CONTINUOUS
10
127.268
20
-145.323
11
126.943
21
-144.998
0
LINE
8
BLACK
6
CONTINUOUS
10
126.943
20
-144.998
11
126.688
21
-144.615
0
LINE
8
BLACK
6
CONTINUOUS
10
126.688
20
-144.615
11
126.512
21
-144.191
0
LINE
8
BLACK
6
CONTINUOUS
10
126.512
20
-144.191
11
126.422
21
-143.74
0
LINE
8
BLACK
6
CONTINUOUS
10
126.422
20
-143.74
11
126.422
21
-143.28
0
LINE
8
BLACK
6
CONTINUOUS
10
126.422
20
-143.28
11
126.512
21
-142.829
0
LINE
8
BLACK
6
CONTINUOUS
10
126.579
20
-144.17
11
126.75
21
-144.582
0
LINE
8
BLACK
6
CONTINUOUS
10
126.75
20
-144.582
11
126.997
21
-144.953
0
LINE
8
BLACK
6
CONTINUOUS
10
126.997
20
-144.953
11
127.313
21
-145.269
0
LINE
8
BLACK
6
CONTINUOUS
10
127.313
20
-145.269
11
127.684
21
-145.516
0
LINE
8
BLACK
6
CONTINUOUS
10
127.684
20
-145.516
11
128.096
21
-145.687
0
LINE
8
BLACK
6
CONTINUOUS
10
128.096
20
-145.687
11
128.533
21
-145.774
0
LINE
8
BLACK
6
CONTINUOUS
10
128.533
20
-145.774
11
128.979
21
-145.774
0
LINE
8
BLACK
6
CONTINUOUS
10
128.979
20
-145.774
11
129.416
21
-145.687
0
LINE
8
BLACK
6
CONTINUOUS
10
129.416
20
-145.687
11
129.828
21
-145.516
0
LINE
8
BLACK
6
CONTINUOUS
10
129.828
20
-145.516
11
130.199
21
-145.269
0
LINE
8
BLACK
6
CONTINUOUS
10
130.199
20
-145.269
11
130.515
21
-144.953
0
LINE
8
BLACK
6
CONTINUOUS
10
130.515
20
-144.953
11
130.762
21
-144.582
0
LINE
8
BLACK
6
CONTINUOUS
10
130.762
20
-144.582
11
130.933
21
-144.17
0
LINE
8
BLACK
6
CONTINUOUS
10
130.933
20
-144.17
11
131.02
21
-143.733
0
LINE
8
BLACK
6
CONTINUOUS
10
131.02
20
-143.733
11
131.02
21
-143.287
0
LINE
8
BLACK
6
CONTINUOUS
10
131.02
20
-143.287
11
130.933
21
-142.85
0
LINE
8
BLACK
6
CONTINUOUS
10
130.933
20
-142.85
11
130.762
21
-142.438
0
LINE
8
BLACK
6
CONTINUOUS
10
130.762
20
-142.438
11
130.515
21
-142.067
0
LINE
8
BLACK
6
CONTINUOUS
10
130.515
20
-142.067
11
130.199
21
-141.751
0
LINE
8
BLACK
6
CONTINUOUS
10
130.199
20
-141.751
11
129.828
21
-141.504
0
LINE
8
BLACK
6
CONTINUOUS
10
129.828
20
-141.504
11
129.416
21
-141.333
0
LINE
8
BLACK
6
CONTINUOUS
10
129.416
20
-141.333
11
128.979
21
-141.246
0
LINE
8
BLACK
6
CONTINUOUS
10
128.979
20
-141.246
11
128.533
21
-141.246
0
LINE
8
BLACK
6
CONTINUOUS
10
128.533
20
-141.246
11
128.096
21
-141.333
0
LINE
8
BLACK
6
CONTINUOUS
10
128.096
20
-141.333
11
127.684
21
-141.504
0
LINE
8
BLACK
6
CONTINUOUS
10
127.684
20
-141.504
11
127.313
21
-141.751
0
LINE
8
BLACK
6
CONTINUOUS
10
127.313
20
-141.751
11
126.997
21
-142.067
0
LINE
8
BLACK
6
CONTINUOUS
10
126.997
20
-142.067
11
126.75
21
-142.438
0
LINE
8
BLACK
6
CONTINUOUS
10
126.75
20
-142.438
11
126.579
21
-142.85
0
LINE
8
BLACK
6
CONTINUOUS
10
126.579
20
-142.85
11
126.492
21
-143.287
0
LINE
8
BLACK
6
CONTINUOUS
10
126.492
20
-143.287
11
126.492
21
-143.733
0
LINE
8
BLACK
6
CONTINUOUS
10
126.492
20
-143.733
11
126.579
21
-144.17
0
LINE
8
BLACK
6
CONTINUOUS
10
126.512
20
-39.8813
11
126.688
21
-39.4566
0
LINE
8
BLACK
6
CONTINUOUS
10
126.688
20
-39.4566
11
126.943
21
-39.0743
0
LINE
8
BLACK
6
CONTINUOUS
10
126.943
20
-39.0743
11
127.268
21
-38.7493
0
LINE
8
BLACK
6
CONTINUOUS
10
127.268
20
-38.7493
11
127.651
21
-38.4939
0
LINE
8
BLACK
6
CONTINUOUS
10
127.651
20
-38.4939
11
128.075
21
-38.318
0
LINE
8
BLACK
6
CONTINUOUS
10
128.075
20
-38.318
11
128.526
21
-38.2283
0
LINE
8
BLACK
6
CONTINUOUS
10
128.526
20
-38.2283
11
128.986
21
-38.2283
0
LINE
8
BLACK
6
CONTINUOUS
10
128.986
20
-38.2283
11
129.437
21
-38.318
0
LINE
8
BLACK
6
CONTINUOUS
10
129.437
20
-38.318
11
129.861
21
-38.4939
0
LINE
8
BLACK
6
CONTINUOUS
10
129.861
20
-38.4939
11
130.244
21
-38.7493
0
LINE
8
BLACK
6
CONTINUOUS
10
130.244
20
-38.7493
11
130.569
21
-39.0743
0
LINE
8
BLACK
6
CONTINUOUS
10
130.569
20
-39.0743
11
130.824
21
-39.4566
0
LINE
8
BLACK
6
CONTINUOUS
10
130.824
20
-39.4566
11
131
21
-39.8813
0
LINE
8
BLACK
6
CONTINUOUS
10
131
20
-39.8813
11
131.09
21
-40.3321
0
LINE
8
BLACK
6
CONTINUOUS
10
131.09
20
-40.3321
11
131.09
21
-40.7918
0
LINE
8
BLACK
6
CONTINUOUS
10
131.09
20
-40.7918
11
131
21
-41.2427
0
LINE
8
BLACK
6
CONTINUOUS
10
131
20
-41.2427
11
130.824
21
-41.6674
0
LINE
8
BLACK
6
CONTINUOUS
10
130.824
20
-41.6674
11
130.569
21
-42.0497
0
LINE
8
BLACK
6
CONTINUOUS
10
130.569
20
-42.0497
11
130.244
21
-42.3747
0
LINE
8
BLACK
6
CONTINUOUS
10
130.244
20
-42.3747
11
129.861
21
-42.6301
0
LINE
8
BLACK
6
CONTINUOUS
10
129.861
20
-42.6301
11
129.437
21
-42.806
0
LINE
8
BLACK
6
CONTINUOUS
10
129.437
20
-42.806
11
128.986
21
-42.8957
0
LINE
8
BLACK
6
CONTINUOUS
10
128.986
20
-42.8957
11
128.526
21
-42.8957
0
LINE
8
BLACK
6
CONTINUOUS
10
128.526
20
-42.8957
11
128.075
21
-42.806
0
LINE
8
BLACK
6
CONTINUOUS
10
128.075
20
-42.806
11
127.651
21
-42.6301
0
LINE
8
BLACK
6
CONTINUOUS
10
127.651
20
-42.6301
11
127.268
21
-42.3747
0
LINE
8
BLACK
6
CONTINUOUS
10
127.268
20
-42.3747
11
126.943
21
-42.0497
0
LINE
8
BLACK
6
CONTINUOUS
10
126.943
20
-42.0497
11
126.688
21
-41.6674
0
LINE
8
BLACK
6
CONTINUOUS
10
126.688
20
-41.6674
11
126.512
21
-41.2427
0
LINE
8
BLACK
6
CONTINUOUS
10
126.512
20
-41.2427
11
126.422
21
-40.7918
0
LINE
8
BLACK
6
CONTINUOUS
10
126.422
20
-40.7918
11
126.422
21
-40.3321
0
LINE
8
BLACK
6
CONTINUOUS
10
126.422
20
-40.3321
11
126.512
21
-39.8813
0
LINE
8
BLACK
6
CONTINUOUS
10
126.579
20
-41.2224
11
126.75
21
-41.6344
0
LINE
8
BLACK
6
CONTINUOUS
10
126.75
20
-41.6344
11
126.997
21
-42.0052
0
LINE
8
BLACK
6
CONTINUOUS
10
126.997
20
-42.0052
11
127.313
21
-42.3206
0
LINE
8
BLACK
6
CONTINUOUS
10
127.313
20
-42.3206
11
127.684
21
-42.5684
0
LINE
8
BLACK
6
CONTINUOUS
10
127.684
20
-42.5684
11
128.096
21
-42.739
0
LINE
8
BLACK
6
CONTINUOUS
10
128.096
20
-42.739
11
128.533
21
-42.826
0
LINE
8
BLACK
6
CONTINUOUS
10
128.533
20
-42.826
11
128.979
21
-42.826
0
LINE
8
BLACK
6
CONTINUOUS
10
128.979
20
-42.826
11
129.416
21
-42.739
0
LINE
8
BLACK
6
CONTINUOUS
10
129.416
20
-42.739
11
129.828
21
-42.5684
0
LINE
8
BLACK
6
CONTINUOUS
10
129.828
20
-42.5684
11
130.199
21
-42.3206
0
LINE
8
BLACK
6
CONTINUOUS
10
130.199
20
-42.3206
11
130.515
21
-42.0052
0
LINE
8
BLACK
6
CONTINUOUS
10
130.515
20
-42.0052
11
130.762
21
-41.6344
0
LINE
8
BLACK
6
CONTINUOUS
10
130.762
20
-41.6344
11
130.933
21
-41.2224
0
LINE
8
BLACK
6
CONTINUOUS
10
130.933
20
-41.2224
11
131.02
21
-40.785
0
LINE
8
BLACK
6
CONTINUOUS
10
131.02
20
-40.785
11
131.02
21
-40.339
0
LINE
8
BLACK
6
CONTINUOUS
10
131.02
20
-40.339
11
130.933
21
-39.9016
0
LINE
8
BLACK
6
CONTINUOUS
10
130.933
20
-39.9016
11
130.762
21
-39.4896
0
LINE
8
BLACK
6
CONTINUOUS
10
130.762
20
-39.4896
11
130.515
21
-39.1188
0
LINE
8
BLACK
6
CONTINUOUS
10
130.515
20
-39.1188
11
130.199
21
-38.8034
0
LINE
8
BLACK
6
CONTINUOUS
10
130.199
20
-38.8034
11
129.828
21
-38.5556
0
LINE
8
BLACK
6
CONTINUOUS
10
129.828
20
-38.5556
11
129.416
21
-38.385
0
LINE
8
BLACK
6
CONTINUOUS
10
129.416
20
-38.385
11
128.979
21
-38.298
0
LINE
8
BLACK
6
CONTINUOUS
10
128.979
20
-38.298
11
128.533
21
-38.298
0
LINE
8
BLACK
6
CONTINUOUS
10
128.533
20
-38.298
11
128.096
21
-38.385
0
LINE
8
BLACK
6
CONTINUOUS
10
128.096
20
-38.385
11
127.684
21
-38.5556
0
LINE
8
BLACK
6
CONTINUOUS
10
127.684
20
-38.5556
11
127.313
21
-38.8034
0
LINE
8
BLACK
6
CONTINUOUS
10
127.313
20
-38.8034
11
126.997
21
-39.1188
0
LINE
8
BLACK
6
CONTINUOUS
10
126.997
20
-39.1188
11
126.75
21
-39.4896
0
LINE
8
BLACK
6
CONTINUOUS
10
126.75
20
-39.4896
11
126.579
21
-39.9016
0
LINE
8
BLACK
6
CONTINUOUS
10
126.579
20
-39.9016
11
126.492
21
-40.339
0
LINE
8
BLACK
6
CONTINUOUS
10
126.492
20
-40.339
11
126.492
21
-40.785
0
LINE
8
BLACK
6
CONTINUOUS
10
126.492
20
-40.785
11
126.579
21
-41.2224
0
LINE
8
BLACK
6
CONTINUOUS
10
224.006
20
-39.8533
11
224.182
21
-39.4286
0
LINE
8
BLACK
6
CONTINUOUS
10
224.182
20
-39.4286
11
224.437
21
-39.0463
0
LINE
8
BLACK
6
CONTINUOUS
10
224.437
20
-39.0463
11
224.762
21
-38.7213
0
LINE
8
BLACK
6
CONTINUOUS
10
224.762
20
-38.7213
11
225.145
21
-38.4659
0
LINE
8
BLACK
6
CONTINUOUS
10
225.145
20
-38.4659
11
225.569
21
-38.29
0
LINE
8
BLACK
6
CONTINUOUS
10
225.569
20
-38.29
11
226.02
21
-38.2003
0
LINE
8
BLACK
6
CONTINUOUS
10
226.02
20
-38.2003
11
226.48
21
-38.2003
0
LINE
8
BLACK
6
CONTINUOUS
10
226.48
20
-38.2003
11
226.931
21
-38.29
0
LINE
8
BLACK
6
CONTINUOUS
10
226.931
20
-38.29
11
227.355
21
-38.4659
0
LINE
8
BLACK
6
CONTINUOUS
10
227.355
20
-38.4659
11
227.738
21
-38.7213
0
LINE
8
BLACK
6
CONTINUOUS
10
227.738
20
-38.7213
11
228.063
21
-39.0463
0
LINE
8
BLACK
6
CONTINUOUS
10
228.063
20
-39.0463
11
228.318
21
-39.4286
0
LINE
8
BLACK
6
CONTINUOUS
10
228.318
20
-39.4286
11
228.494
21
-39.8533
0
LINE
8
BLACK
6
CONTINUOUS
10
228.494
20
-39.8533
11
228.584
21
-40.3041
0
LINE
8
BLACK
6
CONTINUOUS
10
228.584
20
-40.3041
11
228.584
21
-40.7638
0
LINE
8
BLACK
6
CONTINUOUS
10
228.584
20
-40.7638
11
228.494
21
-41.2147
0
LINE
8
BLACK
6
CONTINUOUS
10
228.494
20
-41.2147
11
228.318
21
-41.6394
0
LINE
8
BLACK
6
CONTINUOUS
10
228.318
20
-41.6394
11
228.063
21
-42.0217
0
LINE
8
BLACK
6
CONTINUOUS
10
228.063
20
-42.0217
11
227.738
21
-42.3467
0
LINE
8
BLACK
6
CONTINUOUS
10
227.738
20
-42.3467
11
227.355
21
-42.6021
0
LINE
8
BLACK
6
CONTINUOUS
10
227.355
20
-42.6021
11
226.931
21
-42.778
0
LINE
8
BLACK
6
CONTINUOUS
10
226.931
20
-42.778
11
226.48
21
-42.8677
0
LINE
8
BLACK
6
CONTINUOUS
10
226.48
20
-42.8677
11
226.02
21
-42.8677
0
LINE
8
BLACK
6
CONTINUOUS
10
226.02
20
-42.8677
11
225.569
21
-42.778
0
LINE
8
BLACK
6
CONTINUOUS
10
225.569
20
-42.778
11
225.145
21
-42.6021
0
LINE
8
BLACK
6
CONTINUOUS
10
225.145
20
-42.6021
11
224.762
21
-42.3467
0
LINE
8
BLACK
6
CONTINUOUS
10
224.762
20
-42.3467
11
224.437
21
-42.0217
0
LINE
8
BLACK
6
CONTINUOUS
10
224.437
20
-42.0217
11
224.182
21
-41.6394
0
LINE
8
BLACK
6
CONTINUOUS
10
224.182
20
-41.6394
11
224.006
21
-41.2147
0
LINE
8
BLACK
6
CONTINUOUS
10
224.006
20
-41.2147
11
223.916
21
-40.7638
0
LINE
8
BLACK
6
CONTINUOUS
10
223.916
20
-40.7638
11
223.916
21
-40.3041
0
LINE
8
BLACK
6
CONTINUOUS
10
223.916
20
-40.3041
11
224.006
21
-39.8533
0
LINE
8
BLACK
6
CONTINUOUS
10
224.073
20
-41.1944
11
224.244
21
-41.6064
0
LINE
8
BLACK
6
CONTINUOUS
10
224.244
20
-41.6064
11
224.491
21
-41.9772
0
LINE
8
BLACK
6
CONTINUOUS
10
224.491
20
-41.9772
11
224.807
21
-42.2926
0
LINE
8
BLACK
6
CONTINUOUS
10
224.807
20
-42.2926
11
225.178
21
-42.5404
0
LINE
8
BLACK
6
CONTINUOUS
10
225.178
20
-42.5404
11
225.59
21
-42.711
0
LINE
8
BLACK
6
CONTINUOUS
10
225.59
20
-42.711
11
226.027
21
-42.798
0
LINE
8
BLACK
6
CONTINUOUS
10
226.027
20
-42.798
11
226.473
21
-42.798
0
LINE
8
BLACK
6
CONTINUOUS
10
226.473
20
-42.798
11
226.91
21
-42.711
0
LINE
8
BLACK
6
CONTINUOUS
10
226.91
20
-42.711
11
227.322
21
-42.5404
0
LINE
8
BLACK
6
CONTINUOUS
10
227.322
20
-42.5404
11
227.693
21
-42.2926
0
LINE
8
BLACK
6
CONTINUOUS
10
227.693
20
-42.2926
11
228.009
21
-41.9772
0
LINE
8
BLACK
6
CONTINUOUS
10
228.009
20
-41.9772
11
228.256
21
-41.6064
0
LINE
8
BLACK
6
CONTINUOUS
10
228.256
20
-41.6064
11
228.427
21
-41.1944
0
LINE
8
BLACK
6
CONTINUOUS
10
228.427
20
-41.1944
11
228.514
21
-40.757
0
LINE
8
BLACK
6
CONTINUOUS
10
228.514
20
-40.757
11
228.514
21
-40.311
0
LINE
8
BLACK
6
CONTINUOUS
10
228.514
20
-40.311
11
228.427
21
-39.8736
0
LINE
8
BLACK
6
CONTINUOUS
10
228.427
20
-39.8736
11
228.256
21
-39.4616
0
LINE
8
BLACK
6
CONTINUOUS
10
228.256
20
-39.4616
11
228.009
21
-39.0908
0
LINE
8
BLACK
6
CONTINUOUS
10
228.009
20
-39.0908
11
227.693
21
-38.7754
0
LINE
8
BLACK
6
CONTINUOUS
10
227.693
20
-38.7754
11
227.322
21
-38.5276
0
LINE
8
BLACK
6
CONTINUOUS
10
227.322
20
-38.5276
11
226.91
21
-38.357
0
LINE
8
BLACK
6
CONTINUOUS
10
226.91
20
-38.357
11
226.473
21
-38.27
0
LINE
8
BLACK
6
CONTINUOUS
10
226.473
20
-38.27
11
226.027
21
-38.27
0
LINE
8
BLACK
6
CONTINUOUS
10
226.027
20
-38.27
11
225.59
21
-38.357
0
LINE
8
BLACK
6
CONTINUOUS
10
225.59
20
-38.357
11
225.178
21
-38.5276
0
LINE
8
BLACK
6
CONTINUOUS
10
225.178
20
-38.5276
11
224.807
21
-38.7754
0
LINE
8
BLACK
6
CONTINUOUS
10
224.807
20
-38.7754
11
224.491
21
-39.0908
0
LINE
8
BLACK
6
CONTINUOUS
10
224.491
20
-39.0908
11
224.244
21
-39.4616
0
LINE
8
BLACK
6
CONTINUOUS
10
224.244
20
-39.4616
11
224.073
21
-39.8736
0
LINE
8
BLACK
6
CONTINUOUS
10
224.073
20
-39.8736
11
223.986
21
-40.311
0
LINE
8
BLACK
6
CONTINUOUS
10
223.986
20
-40.311
11
223.986
21
-40.757
0
LINE
8
BLACK
6
CONTINUOUS
10
223.986
20
-40.757
11
224.073
21
-41.1944
  0
ENDSEC
  0
EOF
